<?xml version="1.0" encoding="UTF-8"?><svg id="b" xmlns="http://www.w3.org/2000/svg" width="520" height="520" xmlns:xlink="http://www.w3.org/1999/xlink" viewBox="0 0 520 520"><defs><clipPath id="c"><polygon points="240.52 106.99 232.97 114.54 224.82 114.54 216.63 122.74 198.61 122.74 191.88 116.01 172.65 116.01 160.67 104.03 150.07 114.62 132.82 114.62 125.03 106.84 104.54 106.84 99.08 101.38 95.37 105.09 95.37 121.5 86.13 121.5 80.28 115.64 71.39 115.64 64.21 108.47 51.62 121.06 43.14 121.06 43.14 110.56 53.9 99.8 69.7 99.8 86.89 82.61 96.91 82.61 105.28 90.99 122.46 90.99 139.73 73.71 128.05 73.71 121.27 80.5 111.76 80.5 102.68 71.41 98.61 67.34 92.14 67.34 92.14 54.74 84.7 62.18 72.79 62.18 65.8 55.18 76.54 44.44 89.58 44.44 95.25 38.77 99.86 43.38 111.78 31.45 111.78 19.85 118.74 12.89 95.47 12.89 95.47 7.05 114.58 7.05 125.1 -3.47 141.01 12.44 147.4 12.44 153.4 6.45 143.93 -3.02 150.87 -9.96 150.87 -20.44 161.17 -20.44 161.17 -29.98 148.94 -29.98 143.2 -35.72 143.2 -52.62 151.11 -60.53 157.5 -60.53 163.34 -66.37 134.81 -66.37 128.7 -60.26 119.48 -69.48 112.15 -62.15 112.15 -78.78 139.11 -105.75 131.49 -113.37 123.73 -113.37 132.62 -122.25 125.27 -129.61 114.99 -119.33 114.99 -132.64 132.46 -150.11 123.28 -150.11 123.28 -159.85 134.63 -171.2 134.63 -176.96 130.36 -181.24 130.36 -194.91 141.2 -194.91 149.11 -187 149.11 -202.37 156.45 -209.71 156.45 -218.83 164.51 -218.83 174.93 -208.42 194.53 -208.42 200.02 -202.93 200.02 -196.04 187.24 -196.04 177.7 -186.5 169.28 -186.5 160.75 -177.97 160.75 -164.93 166.55 -170.72 200.93 -170.72 208.33 -163.32 217.09 -163.32 217.09 -157.02 203.68 -143.61 203.68 -132.73 192.47 -121.52 173.72 -121.52 182.21 -113.03 176.02 -106.83 162.86 -106.83 162.86 -99.82 186.53 -99.82 205.1 -81.25 205.1 -37.43 217.33 -25.2 217.33 -4.73 212.78 -.18 225.93 12.96 225.93 26.52 214.7 37.75 214.7 49.13 222.87 40.96 245.58 40.96 255.27 50.65 255.27 69.32 239.7 84.89 223.7 84.89 213.7 94.89 225.88 107.07 240.52 106.99" fill="none"/></clipPath><linearGradient id="d" x1="149.21" y1="123.74" x2="149.21" y2="-219.83" gradientUnits="userSpaceOnUse"><stop offset="0" stop-color="#74bd56"/><stop offset=".3" stop-color="#74bd56" stop-opacity="0"/></linearGradient><clipPath id="e"><path d="m437.31,254.69v-38.69h-17.69l-11.96-7.55v-18.22l-9.74-9.74v-42.38l7.85-7.85v-21h31.49l10.66-10.66v-41.6l5.16-5.16-11.15-11.15,9.67-9.67h17.58l9.74,9.74v8.65l6.5-6.5v-12.49h11.86l4.33,4.33v8h8.42v-7.92l-7.75-7.75v-5.67h-8.17l-3.67-3.67v-6.67l9.84-9.84-5.83-5.83v-6.34h13.38l22.13,22.13h17.58v11.28l3.51,3.51h20.02l9.4-9.4h12l3.7-3.7,9.02,9.02h12.82v14.85h14.04v27.22l-6.28,6.28v11.09l8.79,8.79v11.59l7.64,7.64v47.82l-9.03-9.03-22.25,22.25h-9.75l-6.87,6.87h-20.85v16.27l9.01,9.01v12.66l34.78,34.78-16.67,16.67h-13.31v13.63l10.12,9.58v11.5l-6.35,6.35-9.48-9.48h-59.32l-6.42-6.42-13.89,13.89-11.86-11.86h0l-5.38,5.38-12.87-12.88h-44.72v-21.32s10.2-10.37,10.22-10.34Z" fill="none"/></clipPath><linearGradient id="f" x1="396.92" y1="148.4" x2="643.19" y2="148.4" xlink:href="#d"/><clipPath id="g"><polygon points="516.81 320.61 525.57 320.61 535.77 332.2 516.75 351.23 508.59 351.23 494.38 365.44 476.83 347.89 472.23 347.89 462.26 357.86 411.94 357.86 415.07 350.26 385.54 320.73 385.54 306.59 427.09 265.04 427.09 286.35 471.8 286.35 484.68 299.23 490.05 293.85 516.81 320.61" fill="none"/></clipPath><linearGradient id="h" x1="384.54" y1="315.24" x2="536.77" y2="315.24" gradientUnits="userSpaceOnUse"><stop offset="0" stop-color="#74bd56"/><stop offset=".6" stop-color="#74bd56" stop-opacity="0"/></linearGradient></defs><g><g opacity=".2"><polygon points="359.45 115.94 350.98 115.94 350.98 99.71 357.52 106.25 363.16 100.62 356.07 93.53 365.57 84.03 372.04 84.03 372.04 76.54 375.28 73.3 375.28 64.19 380.45 59.02 385.78 59.02 389.9 63.14 389.9 70.26 384.11 76.05 384.11 85.53 391.6 85.53 399.42 77.71 399.42 52.44 408.41 43.45 417 43.45 421.29 47.74 430.28 38.76 435.75 44.22 435.75 54.27 445.89 44.12 453.35 51.58 447.91 57.01 447.91 98.61 437.26 109.27 405.77 109.27 405.77 130.27 397.75 138.29 379.4 119.95 374.76 124.59 368.26 124.59 359.45 115.94" fill="#74bd56"/></g><path d="m397.75,139.29c-.26,0-.51-.1-.71-.29l-17.64-17.64-3.93,3.93c-.19.19-.44.29-.71.29h-6.5c-.26,0-.51-.1-.7-.29l-8.51-8.36h-8.06c-.55,0-1-.45-1-1v-16.23c0-.4.24-.77.62-.92.38-.16.8-.07,1.09.22l5.83,5.83,4.22-4.22-6.38-6.38c-.39-.39-.39-1.02,0-1.41l9.5-9.5c.19-.19.44-.29.71-.29h5.46v-6.49c0-.27.11-.52.29-.71l2.95-2.95v-8.7c0-.27.11-.52.29-.71l5.17-5.17c.19-.19.44-.29.71-.29h5.33c.27,0,.52.11.71.29l4.12,4.12c.19.19.29.44.29.71v7.12c0,.27-.11.52-.29.71l-5.5,5.5v8.06h6.08l7.24-7.24v-24.85c0-.27.11-.52.29-.71l8.99-8.99c.19-.19.44-.29.71-.29h8.59c.27,0,.52.11.71.29l3.59,3.59,8.28-8.28c.38-.38,1.04-.38,1.41,0l5.47,5.47c.19.19.29.44.29.71v7.63l8.44-8.44c.38-.38,1.04-.38,1.41,0l7.45,7.45c.39.39.39,1.02,0,1.41l-5.14,5.14v41.19c0,.27-.11.52-.29.71l-10.66,10.66c-.19.19-.44.29-.71.29h-30.49v20c0,.27-.11.52-.29.71l-8.02,8.02c-.2.2-.45.29-.71.29Zm-18.35-20.35c.27,0,.52.11.71.29l17.64,17.64,7.02-7.02v-20.58c0-.55.45-1,1-1h31.07l10.07-10.07v-41.19c0-.27.11-.52.29-.71l4.73-4.73-6.04-6.04-9.44,9.44c-.29.29-.72.37-1.09.22-.37-.15-.62-.52-.62-.92v-9.63l-4.47-4.47-8.28,8.28c-.39.39-1.02.39-1.41,0l-4-4h-7.76l-8.41,8.41v24.85c0,.27-.11.52-.29.71l-7.82,7.82c-.19.19-.44.29-.71.29h-7.49c-.55,0-1-.45-1-1v-9.48c0-.27.11-.52.29-.71l5.5-5.5v-6.29l-3.53-3.53h-4.51l-4.58,4.58v8.7c0,.27-.11.52-.29.71l-2.95,2.95v7.07c0,.55-.45,1-1,1h-6.05l-8.5,8.5,6.38,6.38c.39.39.39,1.02,0,1.41l-5.63,5.63c-.39.39-1.02.39-1.41,0l-4.83-4.83v12.82h7.47c.26,0,.51.1.7.29l8.51,8.36h5.68l4.35-4.35c.19-.19.44-.29.71-.29Z" fill="#74bd56"/></g><g><g opacity=".2"><g clip-path="url(#c)"><rect x="43.14" y="20.27" width="212.13" height="102.47" fill="#74bd56"/><rect x="43.14" y="-218.83" width="212.13" height="239.1" fill="#74bd56"/></g></g><path d="m216.63,123.74h-18.02c-.27,0-.52-.11-.71-.29l-6.44-6.44h-18.82c-.27,0-.52-.11-.71-.29l-11.28-11.28-9.89,9.89c-.19.19-.44.29-.71.29h-17.25c-.27,0-.52-.11-.71-.29l-7.49-7.49h-20.08c-.27,0-.52-.11-.71-.29l-4.75-4.75-2.71,2.71v16c0,.55-.45,1-1,1h-9.24c-.27,0-.52-.11-.71-.29l-5.56-5.56h-8.48c-.27,0-.52-.11-.71-.29l-6.46-6.46-11.88,11.88c-.19.19-.44.29-.71.29h-8.48c-.55,0-1-.45-1-1v-10.51c0-.27.11-.52.29-.71l10.76-10.76c.19-.19.44-.29.71-.29h15.39l16.89-16.89c.19-.19.44-.29.71-.29h10.02c.27,0,.52.11.71.29l8.08,8.08h16.35l15.27-15.27h-8.86l-6.49,6.49c-.19.19-.44.29-.71.29h-9.51c-.27,0-.52-.11-.71-.29l-12.86-12.86h-6.05c-.55,0-1-.45-1-1v-10.19l-5.73,5.73c-.19.19-.44.29-.71.29h-11.92c-.27,0-.52-.11-.71-.29l-6.99-6.99c-.39-.39-.39-1.02,0-1.41l10.74-10.74c.19-.19.44-.29.71-.29h12.63l5.38-5.38c.38-.38,1.04-.38,1.41,0l3.9,3.9,10.92-10.92v-11.19c0-.27.11-.52.29-.71l5.25-5.25h-20.85c-.55,0-1-.45-1-1v-5.84c0-.55.45-1,1-1h18.7l10.23-10.23c.39-.39,1.02-.39,1.41,0l15.62,15.62h5.56l5-5-8.76-8.76c-.39-.39-.39-1.02,0-1.41l6.65-6.65v-10.07c0-.55.45-1,1-1h9.3v-7.54h-11.23c-.27,0-.52-.11-.71-.29l-5.74-5.74c-.19-.19-.29-.44-.29-.71v-16.9c0-.27.11-.52.29-.71l7.91-7.91c.19-.19.44-.29.71-.29h5.97l3.84-3.84h-25.7l-5.82,5.82c-.39.39-1.02.39-1.41,0l-8.52-8.52-6.62,6.62c-.29.29-.72.37-1.09.22-.37-.15-.62-.52-.62-.92v-16.64c0-.27.11-.52.29-.71l26.26-26.26-6.62-6.62h-7.34c-.4,0-.77-.24-.92-.62-.16-.37-.07-.8.22-1.09l8.18-8.18-5.94-5.94-9.57,9.57c-.29.29-.72.37-1.09.22-.37-.15-.62-.52-.62-.92v-13.31c0-.27.11-.52.29-.71l15.76-15.76h-6.76c-.55,0-1-.45-1-1v-9.74c0-.27.11-.52.29-.71l11.06-11.06v-4.93l-3.98-3.98c-.19-.19-.29-.44-.29-.71v-13.68c0-.55.45-1,1-1h10.84c.27,0,.52.11.71.29l6.21,6.21v-12.96c0-.27.11-.52.29-.71l7.04-7.04v-8.71c0-.55.45-1,1-1h8.06c.27,0,.52.11.71.29l10.12,10.12h19.19c.27,0,.52.11.71.29l5.49,5.49c.19.19.29.44.29.71v6.89c0,.55-.45,1-1,1h-12.37l-9.24,9.24c-.19.19-.44.29-.71.29h-8l-7.94,7.94v10.21l4.09-4.09c.19-.19.44-.29.71-.29h34.38c.27,0,.52.11.71.29l7.11,7.11h8.35c.55,0,1,.45,1,1v6.3c0,.27-.11.52-.29.71l-13.12,13.12v10.46c0,.27-.11.52-.29.71l-11.21,11.21c-.19.19-.44.29-.71.29h-16.33l6.78,6.78c.19.19.29.44.29.71s-.11.52-.29.71l-6.2,6.19c-.19.19-.44.29-.71.29h-12.16v5.01h22.67c.27,0,.52.11.71.29l18.57,18.57c.19.19.29.44.29.71v43.41l11.94,11.94c.19.19.29.44.29.71V-4.73c0,.27-.11.52-.29.71l-3.84,3.84,12.44,12.44c.19.19.29.44.29.71v13.56c0,.27-.11.52-.29.71l-10.93,10.93v8.55l6.46-6.46c.19-.19.44-.29.71-.29h22.71c.27,0,.52.11.71.29l9.69,9.69c.19.19.29.44.29.71v18.67c0,.27-.11.52-.29.71l-15.57,15.57c-.19.19-.44.29-.71.29h-15.59l-9,9,11.18,11.18,14.22-.08h0c.4,0,.77.24.92.62.16.37.07.8-.22,1.09l-7.55,7.55c-.19.19-.44.29-.71.29h-7.73l-7.9,7.9c-.19.19-.44.29-.71.29Zm-17.6-2h17.19l7.9-7.9c.19-.19.44-.29.71-.29h7.73l5.54-5.54-12.21.07h0c-.27,0-.52-.11-.71-.29l-12.18-12.18c-.39-.39-.39-1.02,0-1.41l10-10c.19-.19.44-.29.71-.29h15.59l14.98-14.98v-17.84l-9.11-9.11h-21.89l-7.87,7.87c-.29.29-.72.37-1.09.22-.37-.15-.62-.52-.62-.92v-11.38c0-.27.11-.52.29-.71l10.93-10.93v-12.73l-12.85-12.85c-.39-.39-.39-1.02,0-1.41l4.25-4.25v-19.64l-11.94-11.94c-.19-.19-.29-.44-.29-.71v-43.41l-17.98-17.98h-23.26c-.55,0-1-.45-1-1v-7.01c0-.55.45-1,1-1h12.74l5.2-5.19-7.78-7.78c-.29-.29-.37-.72-.22-1.09.15-.37.52-.62.92-.62h18.33l10.62-10.62v-10.46c0-.27.11-.52.29-.71l13.12-13.12v-4.89h-7.76c-.27,0-.52-.11-.71-.29l-7.11-7.11h-33.55l-5.5,5.5c-.29.29-.72.37-1.09.22-.37-.15-.62-.52-.62-.92v-13.04c0-.27.11-.52.29-.71l8.53-8.53c.19-.19.44-.29.71-.29h8l9.24-9.24c.19-.19.44-.29.71-.29h11.78v-5.48l-4.9-4.9h-19.19c-.27,0-.52-.11-.71-.29l-10.12-10.12h-6.65v8.12c0,.27-.11.52-.29.71l-7.04,7.04v14.96c0,.4-.24.77-.62.92-.37.16-.8.07-1.09-.22l-7.62-7.62h-9.42v12.26l3.98,3.98c.19.19.29.44.29.71v5.76c0,.27-.11.52-.29.71l-11.06,11.06v8.33h8.18c.4,0,.77.24.92.62.16.37.07.8-.22,1.09l-17.18,17.18v10.49l8.57-8.57c.38-.38,1.04-.38,1.41,0l7.35,7.35c.39.39.39,1.02,0,1.41l-7.18,7.18h5.34c.27,0,.52.11.71.29l7.62,7.62c.39.39.39,1.02,0,1.41l-26.67,26.67v13.81l5.62-5.62c.39-.39,1.02-.39,1.41,0l8.52,8.52,5.4-5.4c.19-.19.44-.29.71-.29h28.53c.4,0,.77.24.92.62.16.37.07.8-.22,1.09l-5.84,5.84c-.19.19-.44.29-.71.29h-5.97l-7.33,7.33v16.07l5.15,5.15h11.82c.55,0,1,.45,1,1v9.54c0,.55-.45,1-1,1h-9.3v9.48c0,.27-.11.52-.29.71l-6.23,6.23,8.76,8.76c.19.19.29.44.29.71s-.11.52-.29.71l-6,6c-.19.19-.44.29-.71.29h-6.39c-.27,0-.52-.11-.71-.29l-15.2-15.2-9.81,9.81c-.19.19-.44.29-.71.29h-18.11v3.84h22.26c.4,0,.77.24.92.62.16.37.07.8-.22,1.09l-6.67,6.67v11.19c0,.27-.11.52-.29.71l-11.92,11.92c-.19.19-.44.29-.71.29h0c-.27,0-.52-.11-.71-.29l-3.9-3.9-4.97,4.97c-.19.19-.44.29-.71.29h-12.63l-9.74,9.74,5.99,5.99h11.09l7.15-7.15c.29-.29.72-.37,1.09-.22.37.15.62.52.62.92v11.61h5.47c.27,0,.52.11.71.29l12.86,12.86h8.68l6.49-6.49c.19-.19.44-.29.71-.29h11.68c.4,0,.77.24.92.62.16.37.07.8-.22,1.09l-17.27,17.27c-.19.19-.44.29-.71.29h-17.18c-.27,0-.52-.11-.71-.29l-8.08-8.08h-9.19l-16.89,16.89c-.19.19-.44.29-.71.29h-15.39l-10.17,10.17v9.09h7.07l12.3-12.3c.39-.39,1.02-.39,1.41,0l6.88,6.88h8.48c.27,0,.52.11.71.29l5.56,5.56h7.82v-15.41c0-.27.11-.52.29-.71l3.71-3.71c.39-.39,1.02-.39,1.41,0l5.17,5.17h20.08c.27,0,.52.11.71.29l7.49,7.49h16.42l10.31-10.31c.39-.39,1.02-.39,1.41,0l11.69,11.69h18.82c.27,0,.52.11.71.29l6.44,6.44Z" fill="url(#d)"/></g><g><g opacity=".2"><polygon points="404.35 374.39 413.48 396.27 413.48 405.47 432.17 405.48 389.29 448.37 356.64 448.37 334.4 427.43 332.51 427.44 316.56 443.4 298.75 443.4 298.75 468.83 260.39 468.83 244.71 453.86 216.11 453.77 207.08 444.74 197.52 444.74 188.68 435.9 178.45 435.9 156.32 413.91 156.32 404.72 171.33 389.48 171.33 340.65 184.34 340.65 171.96 328.27 171.96 310.09 162.29 300.42 162.29 287.36 143.75 287.35 122.04 265.65 107.78 251.95 90.15 233.91 110.64 213.42 145.67 213.42 156.6 224.35 171.79 224.35 180.06 232.62 180.4 220.36 172.82 212.78 172.82 187.95 167.03 182.16 172.95 176.24 195.68 176.24 200.71 181.26 200.71 188.1 218.75 188.1 230.28 188.44 248.48 188.44 254.22 182.7 242.9 171.38 254.87 171.38 254.87 143.85 269.22 129.49 309.3 129.49 309.3 142.52 333.42 166.63 344.6 166.63 381.07 203.1 398.96 202.94 419.62 216 437.29 216 437.33 254.72 385.48 306.59 385.54 320.73 415.07 350.26 404.35 374.39" fill="#74bd56"/></g><path d="m298.75,469.83h-38.37c-.26,0-.5-.1-.69-.28l-15.39-14.69-28.2-.09c-.26,0-.52-.11-.7-.29l-8.73-8.73h-9.14c-.27,0-.52-.11-.71-.29l-8.55-8.55h-9.82c-.26,0-.52-.1-.71-.29l-22.14-21.99c-.19-.19-.29-.44-.29-.71v-9.19c0-.26.1-.51.29-.7l14.73-14.95v-48.42c0-.55.45-1,1-1h10.59l-10.67-10.67c-.19-.19-.29-.44-.29-.71v-17.76l-9.38-9.38c-.19-.19-.29-.44-.29-.71v-12.06h-17.54c-.27,0-.52-.11-.71-.3l-21.71-21.71-14.25-13.68-17.66-18.07c-.38-.39-.38-1.02,0-1.41l20.49-20.49c.19-.19.44-.29.71-.29h35.03c.27,0,.52.11.71.29l10.64,10.64h14.78c.27,0,.52.11.71.29l6.63,6.63.26-9.51-7.28-7.28c-.19-.19-.29-.44-.29-.71v-24.41l-5.5-5.5c-.19-.19-.29-.44-.29-.71s.11-.52.29-.71l5.93-5.93c.19-.19.44-.29.71-.29h22.73c.27,0,.52.11.71.29l5.03,5.03c.19.19.29.44.29.71v5.83h17.04l11.56.34h17.76l4.74-4.74-10.62-10.62c-.29-.29-.37-.72-.22-1.09.15-.37.52-.62.92-.62h10.97v-26.53c0-.27.11-.52.29-.71l14.36-14.36c.19-.19.44-.29.71-.29h40.08c.55,0,1,.45,1,1v12.61l23.53,23.53h10.77c.27,0,.52.11.71.29l36.17,36.17,17.48-.16c.23.02.38.05.54.16l20.41,12.91h17.39c.55,0,1,.45,1,1l.04,38.72c0,.27-.11.52-.29.71l-51.55,51.58.05,13.31,29.24,29.24c.29.29.38.73.21,1.11l-10.54,23.74,8.96,21.48c.05.12.08.25.08.38v8.21h17.7c.41,0,.77.25.92.62.15.37.07.8-.22,1.09l-42.89,42.89c-.19.19-.44.29-.71.29h-32.64c-.25,0-.5-.1-.69-.27l-21.96-20.67h-1.07s-15.67,15.68-15.67,15.68c-.19.19-.44.29-.71.29h-16.8v24.43c0,.55-.45,1-1,1Zm-37.97-2h36.97v-24.43c0-.55.45-1,1-1h17.39l15.66-15.66c.19-.19.44-.29.7-.29l1.88-.02h0c.25,0,.5.1.69.27l21.96,20.67h31.83l40.89-40.89h-16.28c-.55,0-1-.46-1-1.01v-9l-9.05-21.69c-.11-.25-.1-.54,0-.79l10.44-23.5-29.05-29.05c-.19-.19-.29-.44-.29-.7l-.06-14.14c0-.27.1-.52.29-.71l51.55-51.58-.04-37.3h-16.68c-.19,0-.38-.05-.53-.16l-20.4-12.91-17.6.16c-.26-.04-.53-.1-.72-.29l-36.18-36.18h-10.77c-.27,0-.52-.11-.71-.29l-24.11-24.11c-.19-.19-.29-.44-.29-.71v-12.03h-38.67l-13.77,13.77v27.12c0,.55-.45,1-1,1h-9.55l9.62,9.62c.19.19.29.44.29.71s-.11.52-.29.71l-5.74,5.74c-.19.19-.44.29-.71.29h-18.2l-11.56-.34h-18.01c-.55,0-1-.45-1-1v-6.42l-4.44-4.44h-21.9l-4.93,4.93,5.08,5.08c.19.19.29.44.29.71v24.41l7.29,7.29c.19.19.3.46.29.73l-.34,12.26c-.01.4-.26.75-.63.9-.37.15-.79.06-1.08-.22l-7.98-7.98h-14.78c-.27,0-.52-.11-.71-.29l-10.64-10.64h-34.2l-19.5,19.5,16.95,17.34,14.24,13.67,21.43,21.43h18.12c.55,0,1,.45,1,1.01v12.64l9.38,9.38c.19.19.29.44.29.71v17.76l12.09,12.09c.29.29.37.72.22,1.09-.15.37-.52.62-.92.62h-12.01v47.83c0,.26-.1.51-.29.7l-14.73,14.95v8.37l21.55,21.41h9.82c.27,0,.52.11.71.29l8.55,8.55h9.14c.27,0,.52.11.71.29l8.73,8.73,28.19.09c.26,0,.5.1.69.28l15.39,14.69Z" fill="#74bd56"/></g><g><g opacity=".2"><polygon points="309.34 128.47 320.86 116.96 327.26 116.96 336.78 126.48 348.92 126.48 359.45 115.94 368.26 124.75 374.92 124.75 379.56 120.11 397.57 138.12 397.57 169.34 386.58 180.33 386.58 190.79 389.68 193.9 389.68 203.04 381.07 203.04 344.63 166.6 333.42 166.6 309.32 142.5 309.34 128.47" fill="#74bd56"/></g><path d="m389.68,204.04h-8.62c-.27,0-.52-.11-.71-.29l-36.15-36.15h-10.8c-.27,0-.52-.11-.71-.29l-24.1-24.1c-.19-.19-.29-.44-.29-.71l.02-14.03c0-.27.11-.52.29-.71l11.52-11.51c.19-.19.44-.29.71-.29h6.4c.27,0,.52.11.71.29l9.23,9.23h11.31l10.24-10.24c.39-.39,1.02-.39,1.41,0l8.51,8.51h5.83l4.35-4.35c.38-.38,1.04-.38,1.41,0l18.01,18.01c.19.19.29.44.29.71v31.22c0,.27-.11.52-.29.71l-10.7,10.7v9.64l2.81,2.81c.19.19.29.44.29.71v9.14c0,.55-.45,1-1,1Zm-8.2-2h7.2v-7.72l-2.81-2.81c-.19-.19-.29-.44-.29-.71v-10.47c0-.27.11-.52.29-.71l10.7-10.7v-30.39l-17.01-17.01-3.93,3.93c-.19.19-.44.29-.71.29h-6.66c-.27,0-.52-.11-.71-.29l-8.1-8.1-9.83,9.83c-.19.19-.44.29-.71.29h-12.14c-.27,0-.52-.11-.71-.29l-9.23-9.23h-5.57l-10.93,10.93-.02,13.2,23.51,23.51h10.8c.27,0,.52.11.71.29l36.15,36.15Z" fill="#74bd56"/></g><g><g opacity=".2"><g clip-path="url(#e)"><rect x="397.92" y="-10.92" width="73.28" height="318.63" fill="#74bd56"/><rect x="471.2" y="-10.92" width="170.99" height="318.63" fill="#74bd56"/></g></g><path d="m591.02,308.71c-.27,0-.52-.11-.71-.29l-9.18-9.18h-58.91c-.27,0-.52-.11-.71-.29l-5.71-5.71-13.18,13.18c-.38.38-1.04.38-1.41,0l-11.15-11.15-4.67,4.67c-.38.38-1.04.38-1.41,0l-12.58-12.59h-44.3c-.55,0-1-.45-1-1v-21.32c0-.26.1-.51.28-.7,6.35-6.46,8.85-9,9.94-9.99v-37.34h-16.69c-.19,0-.37-.05-.53-.15l-11.96-7.55c-.29-.18-.47-.5-.47-.85v-17.8l-9.45-9.44c-.19-.19-.29-.44-.29-.71v-42.38c0-.27.11-.52.29-.71l7.55-7.55v-20.58c0-.55.45-1,1-1h31.07l10.07-10.07v-41.19c0-.27.11-.52.29-.71l4.46-4.46-10.44-10.44c-.19-.19-.29-.44-.29-.71s.11-.52.29-.71l9.68-9.67c.19-.19.44-.29.71-.29h17.58c.27,0,.52.11.71.29l9.74,9.74c.19.19.29.44.29.71v6.24l4.5-4.5v-12.07c0-.55.45-1,1-1h11.86c.27,0,.52.11.71.29l4.33,4.33c.19.19.29.44.29.71v7h6.42v-6.5l-7.46-7.46c-.19-.19-.29-.44-.29-.71v-4.67h-7.17c-.27,0-.52-.11-.71-.29l-3.67-3.67c-.19-.19-.29-.44-.29-.71v-6.67c0-.27.11-.52.29-.71l9.13-9.13-5.13-5.13c-.19-.19-.29-.44-.29-.71v-6.34c0-.55.45-1,1-1h13.38c.27,0,.52.11.71.29l21.83,21.83h17.17c.55,0,1,.45,1,1v10.86l2.92,2.92h19.19l9.11-9.1c.19-.19.44-.29.71-.29h11.59l3.41-3.41c.38-.38,1.04-.38,1.41,0l8.72,8.72h12.41c.55,0,1,.45,1,1v13.85h13.04c.55,0,1,.45,1,1v27.22c0,.27-.11.52-.29.71l-5.99,5.99v10.27l8.5,8.5c.19.19.29.44.29.71v11.17l7.34,7.34c.19.19.29.44.29.71v47.82c0,.4-.24.77-.62.92-.37.16-.8.07-1.09-.22l-8.33-8.33-21.55,21.55c-.19.19-.44.29-.71.29h-9.34l-6.58,6.58c-.19.19-.44.29-.71.29h-19.85v14.85l8.71,8.71c.19.19.29.44.29.71v12.25l34.49,34.49c.39.39.39,1.02,0,1.41l-16.67,16.67c-.19.19-.44.29-.71.29h-12.31v12.2l9.81,9.28c.2.19.31.45.31.73v11.5c0,.27-.11.52-.29.71l-6.35,6.35c-.19.19-.44.29-.71.29Zm-68.39-11.48h58.91c.27,0,.52.11.71.29l8.77,8.77,5.35-5.35v-10.65l-9.81-9.28c-.2-.19-.31-.45-.31-.73v-13.63c0-.55.45-1,1-1h12.89l15.67-15.67-34.08-34.08c-.19-.19-.29-.44-.29-.71v-12.25l-8.71-8.71c-.19-.19-.29-.44-.29-.71v-16.27c0-.55.45-1,1-1h20.43l6.58-6.58c.19-.19.44-.29.71-.29h9.34l21.96-21.96c.38-.38,1.04-.38,1.41,0l7.33,7.33v-44.99l-7.34-7.34c-.19-.19-.29-.44-.29-.71v-11.17l-8.5-8.5c-.19-.19-.29-.44-.29-.71v-11.09c0-.27.11-.52.29-.71l5.99-5.99v-25.8h-13.04c-.55,0-1-.45-1-1v-13.85h-11.82c-.27,0-.52-.11-.71-.29l-8.31-8.31-2.99,2.99c-.19.19-.44.29-.71.29h-11.59l-9.11,9.1c-.19.19-.44.29-.71.29h-20.02c-.27,0-.52-.11-.71-.29l-3.51-3.51c-.19-.19-.29-.44-.29-.71v-10.28h-16.58c-.27,0-.52-.11-.71-.29l-21.83-21.83h-11.96v4.93l5.54,5.54c.39.39.39,1.02,0,1.41l-9.54,9.54v5.84l3.08,3.08h7.75c.55,0,1,.45,1,1v5.25l7.46,7.46c.19.19.29.44.29.71v7.92c0,.55-.45,1-1,1h-8.42c-.55,0-1-.45-1-1v-7.59l-3.75-3.75h-10.44v11.49c0,.27-.11.52-.29.71l-6.5,6.5c-.29.29-.72.37-1.09.22-.37-.15-.62-.52-.62-.92v-8.24l-9.16-9.16h-16.75l-8.68,8.67,10.44,10.44c.39.39.39,1.02,0,1.41l-4.87,4.87v41.19c0,.27-.11.52-.29.71l-10.66,10.66c-.19.19-.44.29-.71.29h-30.49v20c0,.27-.11.52-.29.71l-7.55,7.55v41.55l9.45,9.44c.19.19.29.44.29.71v17.67l11.25,7.1h17.4c.55,0,1,.45,1,1v38.69c0,.3-.13.58-.35.76-.46.44-6.02,6.08-9.87,9.99v19.91h43.72c.27,0,.52.11.71.29l12.17,12.17,4.67-4.67c.39-.39,1.02-.39,1.41,0l11.15,11.15,13.18-13.18c.38-.38,1.04-.38,1.41,0l6.13,6.13Z" fill="url(#f)"/></g><g><g opacity=".2"><g clip-path="url(#g)"><rect x="385.54" y="265.04" width="90.14" height="100.4" fill="#74bd56"/><rect x="475.68" y="265.04" width="60.09" height="100.4" fill="#74bd56"/></g></g><path d="m494.38,366.44c-.26,0-.51-.1-.71-.29l-17.26-17.26h-3.77l-9.68,9.68c-.19.19-.44.29-.71.29h-50.31c-.33,0-.64-.17-.83-.44-.19-.28-.22-.63-.09-.94l2.87-6.99-29.06-29.06c-.19-.19-.29-.44-.29-.71v-14.14c0-.27.11-.52.29-.71l41.55-41.55c.29-.29.72-.37,1.09-.22.37.15.62.52.62.92v20.31h43.71c.27,0,.52.11.71.29l12.17,12.17,4.67-4.67c.39-.39,1.02-.39,1.41,0l26.46,26.46h8.35c.29,0,.56.12.75.34l10.2,11.6c.35.4.33.99-.04,1.37l-19.03,19.03c-.19.19-.44.29-.71.29h-7.75l-13.92,13.92c-.2.2-.45.29-.71.29Zm-22.15-19.55h4.59c.27,0,.52.11.71.29l16.84,16.84,13.5-13.5c.19-.19.44-.29.71-.29h7.75l18.07-18.07-9.29-10.55h-8.31c-.27,0-.52-.11-.71-.29l-26.05-26.05-4.67,4.67c-.39.39-1.02.39-1.41,0l-12.59-12.59h-44.3c-.55,0-1-.45-1-1v-18.9l-39.55,39.55v13.31l29.24,29.24c.29.29.37.71.22,1.09l-2.56,6.23h48.41l9.68-9.68c.19-.19.44-.29.71-.29Z" fill="url(#h)"/></g><path d="m250.02,426.42h-2v-13.42h-7.22c-.27,0-.52-.11-.71-.29l-20.8-20.8h-7.24c-.27,0-.52-.11-.71-.29l-10.16-10.16-32.19,32.19-1.41-1.41,32.89-32.89c.19-.19.44-.29.71-.29h0c.27,0,.52.11.71.29l10.58,10.58h7.24c.27,0,.52.11.71.29l20.8,20.8h7.8c.55,0,1,.45,1,1v14.42Z" fill="#00223e"/><path d="m178.22,279.03l-1.41-1.41,4.02-4.01c.19-.19.44-.29.71-.29h49.88v2h-49.47l-3.72,3.72Z" fill="#00223e"/><rect x="367.63" y="426.66" width="2" height="25.09" transform="translate(-202.6 389.28) rotate(-45)" fill="#00223e"/><path d="m301.33,223.25l-12.96-4.64h-8.87v-2h9.04c.12,0,.23.02.34.06l13.12,4.7-.67,1.88Z" fill="#0074ee"/><path d="m414.06,224.11l-4.08-4.08h-21.57c-.27,0-.52-.11-.71-.29l-6.21-6.21h-47.18l-8.65,9.78c-.19.21-.46.34-.75.34h-22.33c-.12,0-.23-.02-.34-.06l-.91-.33.68-1.88.75.27h21.71l8.65-9.78c.19-.21.46-.34.75-.34h48.04c.27,0,.52.11.71.29l6.21,6.21h21.57c.27,0,.52.11.71.29l4.38,4.38-1.41,1.41Z" fill="#00223e"/><path d="m279.85,218.67l-1.41-1.41,11.12-11.12v-53.95l-20.27-13.59-56.6-27.72c-.09-.05-.18-.11-.26-.18l-10.09-9.75s-.05-.05-.07-.08l-13.07-15.77,1.54-1.28,13.03,15.73,9.94,9.6,56.51,27.68s.08.04.12.07l20.77,13.93c.28.19.44.5.44.83v54.89c0,.27-.11.52-.29.71l-11.41,11.41Z" fill="#0074ee"/><path d="m200.36,382.44l-1.41-1.41,18.11-18.11v-53.03c0-.27.11-.52.29-.71l12.83-12.83v-22.08c0-.55.45-1,1-1h5.96l8.79-8.79v-14.3c0-.27.11-.52.29-.71l32.22-32.22,1.41,1.41-31.93,31.93v14.3c0,.27-.11.52-.29.71l-9.37,9.37c-.19.19-.44.29-.71.29h-5.37v21.49c0,.27-.11.52-.29.71l-12.83,12.83v53.03c0,.27-.11.52-.29.71l-18.41,18.41Z" fill="#00223e"/><path d="m290.65,152.65l-.19-1.99,63.45-6,15.55-35.58s.03-.07.05-.1l9.61-16.75,1.73,1-9.59,16.7-15.77,36.07c-.15.33-.46.56-.82.59l-64.04,6.05Z" fill="#0074ee"/><path d="m216.55,438.81l-10.97-10.97h-24.17c-.27,0-.52-.11-.71-.29l-13.45-13.46,1.41-1.41,13.16,13.16h24.17c.27,0,.52.11.71.29l11.26,11.26-1.41,1.41Z" fill="#00223e"/><path d="m290.66,458.92h-2v-24.02c0-.55.45-1,1-1h16.69l19.95-19.95c.19-.19.44-.29.71-.29h17.07v2h-16.66l-19.95,19.95c-.19.19-.44.29-.71.29h-16.1v23.02Z" fill="#00223e"/><g><g opacity=".2"><polygon points="397.92 180.49 407.66 190.23 407.66 208.45 398.96 203.04 389.68 203.04 389.68 193.9 386.58 190.79 386.58 180.33 397.92 168.99 397.92 180.49" fill="#74bd56"/></g><path d="m407.66,209.45c-.18,0-.37-.05-.53-.15l-8.45-5.26h-8.99c-.55,0-1-.45-1-1v-8.72l-2.81-2.81c-.19-.19-.29-.44-.29-.71v-10.47c0-.27.11-.52.29-.71l11.34-11.34c.29-.29.72-.37,1.09-.22.37.15.62.52.62.92v11.1l9.45,9.44c.19.19.29.44.29.71v18.22c0,.36-.2.7-.51.87-.15.08-.32.13-.49.13Zm-16.97-7.41h8.28c.19,0,.37.05.53.15l7.17,4.46v-16l-9.45-9.44c-.19-.19-.29-.44-.29-.71v-9.1l-9.34,9.34v9.64l2.81,2.81c.19.19.29.44.29.71v8.14Z" fill="#74bd56"/></g><g><rect x="226.02" y="194.95" width="53.72" height="22.84" rx="2" ry="2" fill="#0074ee"/><g><path d="m232.79,199.92h5.3c2.78,0,4.57,1.74,4.57,4.41v.02c0,2.66-1.79,4.37-4.57,4.37h-2.14v3.65h-3.16v-12.44Zm3.16,2.42v3.99h1.38c1.34,0,2.13-.7,2.13-1.99v-.02c0-1.29-.79-1.98-2.13-1.98h-1.38Z" fill="#fff"/><path d="m243.01,209.65h0c0-1.78,1.36-2.77,3.79-2.93l2.14-.14v-.47c0-.68-.44-1.1-1.29-1.1s-1.3.38-1.41.86l-.02.09h-2.75v-.11c.16-1.83,1.72-3.08,4.33-3.08s4.19,1.28,4.19,3.18v6.41h-3.05v-1.33h-.06c-.54.92-1.47,1.46-2.69,1.46-1.89,0-3.17-1.2-3.17-2.84Zm4.24.72c.98,0,1.68-.59,1.68-1.38v-.63l-1.65.11c-.85.05-1.28.41-1.28.97h0c0,.59.49.93,1.24.93Z" fill="#fff"/><path d="m253.45,202.97h3.06v1.66h.06c.26-1.19,1-1.86,2.1-1.86.29,0,.56.04.79.12v2.61c-.26-.1-.61-.17-.97-.17-1.29,0-1.98.71-1.98,2.04v4.98h-3.06v-9.39Z" fill="#fff"/><path d="m260.38,200.46c0-.82.68-1.5,1.56-1.5s1.56.68,1.56,1.5-.67,1.51-1.56,1.51-1.56-.69-1.56-1.51Zm.03,2.52h3.05v9.39h-3.05v-9.39Z" fill="#fff"/><path d="m264.59,209.5v-.08s2.96,0,2.96,0l.02.07c.15.64.63,1.01,1.53,1.01.81,0,1.3-.29,1.3-.78h0c0-.43-.3-.66-1.14-.84l-1.66-.33c-1.84-.35-2.79-1.31-2.79-2.74h0c0-1.88,1.6-3.04,4.17-3.04,2.72,0,4.16,1.39,4.18,3.07v.07s-2.79,0-2.79,0v-.07c-.08-.55-.55-1.01-1.4-1.01-.75,0-1.23.31-1.23.8h0c0,.41.28.66,1.17.84l1.66.33c1.99.4,2.85,1.17,2.85,2.58h0c0,1.95-1.76,3.18-4.34,3.18-2.79,0-4.29-1.23-4.5-3.06Z" fill="#fff"/></g></g><g><rect x="110.07" y="61.87" width="79.73" height="22.84" rx="2" ry="2" fill="#0074ee"/><g><path d="m116.85,66.84h3.16v9.9h5.15v2.54h-8.31v-12.44Z" fill="#fff"/><path d="m126.06,74.59v-.02c0-3.04,1.89-4.88,4.8-4.88s4.8,1.82,4.8,4.88v.02c0,3.1-1.85,4.89-4.8,4.89s-4.8-1.79-4.8-4.89Zm6.51,0v-.02c0-1.62-.67-2.56-1.71-2.56s-1.7.94-1.7,2.56v.02c0,1.66.65,2.57,1.71,2.57s1.7-.92,1.7-2.57Z" fill="#fff"/><path d="m136.85,69.89h3.06v1.66h.06c.47-1.18,1.43-1.85,2.85-1.85,2.06,0,3.22,1.32,3.22,3.54v6.04h-3.05v-5.39c0-1.08-.51-1.71-1.51-1.71s-1.58.72-1.58,1.77v5.33h-3.06v-9.39Z" fill="#fff"/><path d="m147.21,74.59h0c0-3.12,1.38-4.9,3.74-4.9,1.35,0,2.37.7,2.85,1.86h.06v-4.72h3.05v12.44h-3.05v-1.6h-.06c-.47,1.12-1.49,1.8-2.85,1.8-2.34,0-3.74-1.8-3.74-4.89Zm6.65,0h0c0-1.5-.72-2.41-1.78-2.41s-1.77.9-1.77,2.4h0c0,1.49.69,2.41,1.77,2.41s1.78-.91,1.78-2.41Z" fill="#fff"/><path d="m158.41,69.89h3.06v1.66h.06c.26-1.19,1-1.86,2.1-1.86.29,0,.56.04.79.12v2.61c-.26-.1-.61-.17-.97-.17-1.29,0-1.98.71-1.98,2.04v4.98h-3.06v-9.39Z" fill="#fff"/><path d="m164.83,74.59h0c0-3.03,1.81-4.9,4.66-4.9s4.64,1.85,4.64,4.7v.9h-6.31c.04,1.27.72,2.02,1.84,2.02.98,0,1.52-.56,1.66-.95v-.04h2.77l-.03.1c-.28,1.3-1.47,3.06-4.46,3.06s-4.77-1.85-4.77-4.89Zm3.04-1.1h3.39c-.16-1.05-.79-1.62-1.69-1.62s-1.54.59-1.7,1.62Z" fill="#fff"/><path d="m174.95,76.42v-.08s2.96,0,2.96,0l.02.07c.15.64.63,1.01,1.53,1.01.81,0,1.3-.29,1.3-.78h0c0-.43-.3-.66-1.14-.84l-1.66-.33c-1.84-.35-2.79-1.31-2.79-2.74h0c0-1.88,1.6-3.04,4.17-3.04,2.72,0,4.16,1.39,4.18,3.07v.07s-2.79,0-2.79,0v-.07c-.08-.55-.55-1.01-1.4-1.01-.75,0-1.23.31-1.23.8h0c0,.41.28.66,1.17.84l1.66.33c1.99.4,2.85,1.17,2.85,2.58h0c0,1.95-1.76,3.18-4.34,3.18-2.79,0-4.29-1.23-4.5-3.06Z" fill="#fff"/></g></g><g><rect x="354.11" y="145.21" width="89.33" height="22.84" rx="2" ry="2" fill="#0074ee"/><g><path d="m360.88,150.18h5.79c2.47,0,3.96,1.19,3.96,3.13v.02c0,1.4-1.08,2.53-2.49,2.71v.06c1.7.09,3.03,1.32,3.03,2.95v.02c0,2.16-1.68,3.56-4.34,3.56h-5.94v-12.44Zm3.16,2.23v2.88h1.55c1.27,0,1.94-.55,1.94-1.48v-.02c0-.86-.64-1.38-1.71-1.38h-1.79Zm0,4.87v3.1h1.88c1.29,0,2.03-.54,2.03-1.55v-.02c0-.99-.73-1.54-2.12-1.54h-1.79Z" fill="#fff"/><path d="m372.3,153.23h3.06v1.66h.06c.26-1.19,1-1.86,2.1-1.86.29,0,.56.04.79.12v2.61c-.26-.1-.61-.17-.97-.17-1.29,0-1.98.71-1.98,2.04v4.98h-3.06v-9.39Z" fill="#fff"/><path d="m379.21,159.28v-6.04h3.06v5.39c0,1.08.5,1.72,1.51,1.72s1.58-.73,1.58-1.78v-5.33h3.05v9.39h-3.05v-1.65h-.06c-.47,1.18-1.43,1.85-2.85,1.85-2.06,0-3.23-1.32-3.23-3.54Z" fill="#fff"/><path d="m392.1,157.96l-2.8-4.72h3.45l1.4,3h.06l1.39-3h3.29l-2.81,4.66,2.8,4.73h-3.3l-1.54-3.09h-.06l-1.52,3.09h-3.16l2.81-4.66Z" fill="#fff"/><path d="m399.18,157.93h0c0-3.03,1.81-4.9,4.66-4.9s4.64,1.85,4.64,4.7v.9h-6.31c.04,1.27.72,2.02,1.84,2.02.98,0,1.52-.56,1.66-.95v-.04h2.77l-.03.1c-.28,1.3-1.47,3.06-4.46,3.06s-4.77-1.85-4.77-4.89Zm3.04-1.1h3.39c-.16-1.05-.79-1.62-1.69-1.62s-1.54.59-1.7,1.62Z" fill="#fff"/><path d="m409.72,150.18h3.06v12.44h-3.06v-12.44Z" fill="#fff"/><path d="m414.35,150.18h3.06v12.44h-3.06v-12.44Z" fill="#fff"/><path d="m418.65,157.93h0c0-3.03,1.81-4.9,4.66-4.9s4.64,1.85,4.64,4.7v.9h-6.31c.04,1.27.72,2.02,1.84,2.02.98,0,1.52-.56,1.66-.95v-.04h2.77l-.03.1c-.28,1.3-1.47,3.06-4.46,3.06s-4.77-1.85-4.77-4.89Zm3.04-1.1h3.39c-.16-1.05-.79-1.62-1.69-1.62s-1.54.59-1.7,1.62Z" fill="#fff"/><path d="m428.77,159.76v-.08s2.96,0,2.96,0l.02.07c.15.64.63,1.01,1.53,1.01.81,0,1.3-.29,1.3-.78h0c0-.43-.3-.66-1.14-.84l-1.66-.33c-1.84-.35-2.79-1.31-2.79-2.74h0c0-1.88,1.6-3.04,4.17-3.04,2.72,0,4.16,1.39,4.18,3.07v.07s-2.79,0-2.79,0v-.07c-.08-.55-.55-1.01-1.4-1.01-.75,0-1.23.31-1.23.8h0c0,.41.28.66,1.17.84l1.65.33c1.99.4,2.85,1.17,2.85,2.58h0c0,1.95-1.76,3.18-4.34,3.18-2.79,0-4.29-1.23-4.5-3.06Z" fill="#fff"/></g></g><g><rect x="142.07" y="362.42" width="59.66" height="17.3" rx="2" ry="2" fill="#00223e"/><g><path d="m147.67,366.81h3.51c1.54,0,2.53.83,2.53,2.12h0c0,.92-.69,1.73-1.59,1.86v.03c1.19.11,2,.94,2,2.05h0c0,1.49-1.1,2.4-2.9,2.4h-3.54v-8.46Zm1.51,1.18v2.4h1.36c1.09,0,1.68-.45,1.68-1.24h0c0-.74-.52-1.15-1.42-1.15h-1.62Zm0,3.49v2.61h1.69c1.11,0,1.71-.45,1.71-1.3h0c0-.86-.61-1.31-1.79-1.31h-1.6Z" fill="#fff"/><path d="m154.79,372.16h0c0-2,1.2-3.23,3-3.23s3.01,1.22,3.01,3.22h0c0,2.03-1.18,3.24-3.01,3.24s-3.01-1.22-3.01-3.23Zm4.52,0h0c0-1.31-.6-2.05-1.52-2.05s-1.51.75-1.51,2.04h0c0,1.32.59,2.06,1.52,2.06s1.51-.75,1.51-2.05Z" fill="#fff"/><path d="m161.74,369.06h1.46v1.07h.03c.19-.75.71-1.2,1.42-1.2.18,0,.35.03.46.06v1.32c-.12-.05-.35-.08-.59-.08-.83,0-1.32.52-1.32,1.44v3.6h-1.46v-6.21Z" fill="#fff"/><path d="m165.38,372.16h0c0-2.01,1-3.23,2.56-3.23.88,0,1.59.45,1.94,1.2h.04v-3.31h1.46v8.46h-1.46v-1.05h-.04c-.35.73-1.04,1.18-1.93,1.18-1.57,0-2.57-1.23-2.57-3.23Zm4.54,0h0c0-1.22-.63-2-1.53-2s-1.52.76-1.52,2h0c0,1.24.58,2,1.52,2s1.53-.78,1.53-2Z" fill="#fff"/><path d="m172.34,372.18h0c0-1.96,1.14-3.25,2.92-3.25s2.88,1.25,2.88,3.12v.47h-4.35c.02,1.09.62,1.73,1.57,1.73.73,0,1.2-.39,1.34-.8v-.04h1.38l-.02.06c-.19.96-1.11,1.92-2.73,1.92-1.86,0-2.99-1.24-2.99-3.21Zm1.46-.63h2.91c-.11-.98-.67-1.48-1.44-1.48s-1.35.52-1.47,1.48Z" fill="#fff"/><path d="m178.82,373.5h0c0-1.11.86-1.78,2.36-1.87l1.62-.1v-.43c0-.63-.41-1.01-1.15-1.01-.69,0-1.11.32-1.21.78v.05h-1.37v-.07c.09-1.1,1.05-1.93,2.62-1.93s2.55.82,2.55,2.07v4.27h-1.46v-.96h-.04c-.36.65-1.05,1.06-1.87,1.06-1.24,0-2.08-.77-2.08-1.88Zm2.51.76c.84,0,1.47-.56,1.47-1.29v-.47l-1.42.09c-.72.05-1.11.36-1.11.85h0c0,.52.42.83,1.06.83Z" fill="#fff"/><path d="m185.41,373.07v-4.01h1.46v3.73c0,.88.41,1.38,1.24,1.38s1.37-.6,1.37-1.51v-3.6h1.46v6.21h-1.46v-.97h-.03c-.32.66-.96,1.1-1.9,1.1-1.37,0-2.14-.88-2.14-2.32Z" fill="#fff"/><path d="m193.69,372.17l-1.99-3.11h1.64l1.25,2.18h.04l1.24-2.18h1.59l-2,3.07,1.98,3.14h-1.59l-1.29-2.23h-.04l-1.28,2.23h-1.56l2.01-3.1Z" fill="#fff"/></g></g><g><rect x="122.57" y="411.9" width="45.87" height="17.3" rx="2" ry="2" fill="#00223e"/><g><path d="m128.18,416.3h3.51c1.54,0,2.53.83,2.53,2.12h0c0,.92-.69,1.73-1.59,1.86v.03c1.19.11,2,.94,2,2.05h0c0,1.49-1.1,2.4-2.9,2.4h-3.54v-8.46Zm1.51,1.18v2.4h1.36c1.09,0,1.68-.45,1.68-1.24h0c0-.74-.52-1.15-1.42-1.15h-1.62Zm0,3.49v2.61h1.69c1.11,0,1.71-.45,1.71-1.3h0c0-.86-.61-1.31-1.79-1.31h-1.6Z" fill="#fff"/><path d="m135.51,416.86c0-.45.36-.8.81-.8s.81.36.81.8-.35.8-.81.8-.81-.36-.81-.8Zm.08,1.69h1.46v6.21h-1.46v-6.21Z" fill="#fff"/><path d="m138.04,422.98h0c0-1.11.86-1.78,2.36-1.87l1.62-.1v-.43c0-.63-.41-1.01-1.15-1.01-.69,0-1.11.32-1.21.78v.05h-1.37v-.07c.09-1.1,1.05-1.93,2.62-1.93s2.55.82,2.55,2.07v4.27h-1.46v-.96h-.04c-.36.65-1.05,1.06-1.87,1.06-1.24,0-2.08-.77-2.08-1.88Zm2.51.76c.84,0,1.47-.56,1.47-1.29v-.47l-1.42.09c-.72.05-1.11.36-1.11.85h0c0,.52.42.83,1.06.83Z" fill="#fff"/><path d="m144.66,418.54h1.46v1.07h.03c.19-.75.71-1.2,1.42-1.2.18,0,.35.03.46.06v1.32c-.12-.05-.35-.08-.59-.08-.83,0-1.32.52-1.32,1.44v3.6h-1.46v-6.21Z" fill="#fff"/><path d="m148.78,418.54h1.46v1.07h.03c.19-.75.71-1.2,1.42-1.2.18,0,.35.03.46.06v1.32c-.12-.05-.35-.08-.59-.08-.83,0-1.32.52-1.32,1.44v3.6h-1.46v-6.21Z" fill="#fff"/><path d="m152.87,416.86c0-.45.36-.8.81-.8s.81.36.81.8-.35.8-.81.8-.81-.36-.81-.8Zm.08,1.69h1.46v6.21h-1.46v-6.21Z" fill="#fff"/><path d="m156.04,423.07v-3.4h-.88v-1.12h.88v-1.58h1.48v1.58h1.15v1.12h-1.15v3.28c0,.61.27.8.8.8.14,0,.25-.02.35-.02v1.1c-.17.02-.43.05-.72.05-1.3,0-1.92-.53-1.92-1.8Z" fill="#fff"/><path d="m159.55,423.87l3.23-4.17v-.03h-3.21v-1.12h4.87v.96l-3.11,4.1v.03h3.16v1.12h-4.95v-.88Z" fill="#fff"/></g></g><g><rect x="166.69" y="439.26" width="52.26" height="17.3" rx="2" ry="2" fill="#00223e"/><g><path d="m172.29,443.65h1.51v7.18h3.84v1.27h-5.35v-8.46Z" fill="#fff"/><path d="m178.2,449h0c0-2,1.2-3.23,3-3.23s3.01,1.22,3.01,3.22h0c0,2.03-1.18,3.24-3.01,3.24s-3.01-1.22-3.01-3.23Zm4.52,0h0c0-1.31-.6-2.05-1.52-2.05s-1.51.75-1.51,2.04h0c0,1.32.59,2.06,1.52,2.06s1.51-.75,1.51-2.05Z" fill="#fff"/><path d="m185.12,449.91v-4.01h1.46v3.73c0,.88.41,1.38,1.24,1.38s1.37-.6,1.37-1.51v-3.6h1.46v6.21h-1.46v-.97h-.03c-.32.66-.96,1.1-1.9,1.1-1.37,0-2.14-.88-2.14-2.32Z" fill="#fff"/><path d="m191.85,445.9h1.46v1.07h.03c.19-.75.71-1.2,1.42-1.2.18,0,.35.03.46.06v1.32c-.12-.05-.35-.08-.59-.08-.83,0-1.32.52-1.32,1.44v3.6h-1.46v-6.21Z" fill="#fff"/><path d="m195.48,449h0c0-2.01,1-3.23,2.56-3.23.88,0,1.59.45,1.94,1.2h.04v-3.31h1.46v8.46h-1.46v-1.05h-.04c-.35.73-1.04,1.18-1.93,1.18-1.57,0-2.57-1.23-2.57-3.23Zm4.54,0h0c0-1.22-.63-2-1.53-2s-1.52.76-1.52,2h0c0,1.24.58,2,1.52,2s1.53-.78,1.53-2Z" fill="#fff"/><path d="m202.44,449.02h0c0-1.96,1.14-3.25,2.92-3.25s2.88,1.25,2.88,3.12v.47h-4.35c.02,1.09.62,1.73,1.57,1.73.73,0,1.2-.39,1.34-.8v-.04h1.38l-.02.06c-.19.96-1.11,1.92-2.73,1.92-1.86,0-2.99-1.24-2.99-3.21Zm1.46-.63h2.91c-.11-.98-.67-1.48-1.44-1.48s-1.35.52-1.47,1.48Z" fill="#fff"/><path d="m208.91,450.31v-.05s1.43,0,1.43,0v.05c.12.53.53.85,1.27.85s1.14-.29,1.14-.74h0c0-.38-.22-.59-.86-.74l-1.03-.23c-1.19-.26-1.79-.84-1.79-1.76h0c0-1.14.99-1.91,2.49-1.91s2.45.85,2.5,1.92v.06s-1.35,0-1.35,0v-.05c-.07-.5-.47-.86-1.15-.86-.64,0-1.05.3-1.05.76h0c0,.36.24.6.88.74l1.04.23c1.28.29,1.78.79,1.78,1.69h0c0,1.18-1.08,1.96-2.61,1.96-1.63,0-2.56-.77-2.69-1.93Z" fill="#fff"/></g></g><g><rect x="247.8" y="427.53" width="57.64" height="17.3" rx="2" ry="2" fill="#00223e"/><g><path d="m255.47,433.2h-2.53v-1.27h6.56v1.27h-2.53v7.18h-1.51v-7.18Z" fill="#fff"/><path d="m258.68,437.28h0c0-2,1.2-3.23,3-3.23s3.01,1.22,3.01,3.22h0c0,2.03-1.18,3.24-3.01,3.24s-3.01-1.22-3.01-3.23Zm4.52,0h0c0-1.31-.6-2.05-1.52-2.05s-1.51.75-1.51,2.04h0c0,1.32.59,2.06,1.52,2.06s1.51-.75,1.51-2.05Z" fill="#fff"/><path d="m265.6,438.19v-4.01h1.46v3.73c0,.88.41,1.38,1.24,1.38s1.37-.6,1.37-1.51v-3.6h1.46v6.21h-1.46v-.97h-.03c-.32.66-.96,1.1-1.9,1.1-1.37,0-2.14-.88-2.14-2.32Z" fill="#fff"/><path d="m272.36,431.93h1.46v8.46h-1.46v-8.46Z" fill="#fff"/><path d="m274.81,437.28h0c0-2,1.2-3.23,3-3.23s3.01,1.22,3.01,3.22h0c0,2.03-1.18,3.24-3.01,3.24s-3.01-1.22-3.01-3.23Zm4.52,0h0c0-1.31-.6-2.05-1.52-2.05s-1.51.75-1.51,2.04h0c0,1.32.59,2.06,1.52,2.06s1.51-.75,1.51-2.05Z" fill="#fff"/><path d="m281.73,438.19v-4.01h1.46v3.73c0,.88.41,1.38,1.24,1.38s1.37-.6,1.37-1.51v-3.6h1.46v6.21h-1.46v-.97h-.03c-.32.66-.96,1.1-1.9,1.1-1.37,0-2.14-.88-2.14-2.32Z" fill="#fff"/><path d="m288.19,438.58v-.05s1.43,0,1.43,0v.05c.12.53.53.85,1.27.85s1.14-.29,1.14-.74h0c0-.38-.22-.59-.86-.74l-1.03-.23c-1.19-.26-1.79-.84-1.79-1.76h0c0-1.14.99-1.91,2.49-1.91s2.45.85,2.5,1.92v.06s-1.35,0-1.35,0v-.05c-.07-.5-.47-.86-1.15-.86-.64,0-1.05.3-1.05.76h0c0,.36.24.6.88.74l1.04.23c1.28.29,1.78.79,1.78,1.69h0c0,1.18-1.08,1.96-2.61,1.96-1.63,0-2.56-.77-2.69-1.93Z" fill="#fff"/><path d="m294.15,437.3h0c0-1.96,1.14-3.25,2.92-3.25s2.88,1.25,2.88,3.12v.47h-4.35c.02,1.09.62,1.73,1.57,1.73.73,0,1.2-.39,1.34-.8v-.04h1.38l-.02.06c-.19.96-1.11,1.92-2.73,1.92-1.86,0-2.99-1.24-2.99-3.21Zm1.46-.63h2.91c-.11-.98-.67-1.48-1.44-1.48s-1.35.52-1.47,1.48Z" fill="#fff"/></g></g><g><rect x="289.05" y="458.47" width="63.17" height="17.3" rx="2" ry="2" fill="#00223e"/><g><path d="m294.65,462.87h3.26c1.71,0,2.88,1.13,2.88,2.82h0c0,1.7-1.17,2.84-2.88,2.84h-1.75v2.79h-1.51v-8.46Zm1.51,1.24v3.21h1.37c1.08,0,1.72-.59,1.72-1.6h0c0-1.03-.63-1.61-1.72-1.61h-1.37Z" fill="#fff"/><path d="m301.25,468.24h0c0-1.96,1.14-3.25,2.92-3.25s2.88,1.25,2.88,3.12v.47h-4.35c.02,1.09.62,1.73,1.57,1.73.73,0,1.2-.39,1.34-.8v-.04h1.38l-.02.06c-.19.96-1.11,1.92-2.73,1.92-1.86,0-2.99-1.24-2.99-3.21Zm1.46-.63h2.91c-.11-.98-.67-1.48-1.44-1.48s-1.35.52-1.47,1.48Z" fill="#fff"/><path d="m307.98,465.11h1.46v1.07h.03c.19-.75.71-1.2,1.42-1.2.18,0,.35.03.46.06v1.32c-.12-.05-.35-.08-.59-.08-.83,0-1.32.52-1.32,1.44v3.6h-1.46v-6.21Z" fill="#fff"/><path d="m312.11,465.11h1.46v1.07h.03c.36-.74,1.04-1.2,1.93-1.2,1.58,0,2.57,1.23,2.57,3.23h0c0,2-1,3.23-2.55,3.23-.88,0-1.59-.45-1.95-1.17h-.03v3.1h-1.46v-8.26Zm4.5,3.11h0c0-1.25-.59-2.01-1.52-2.01s-1.54.79-1.54,2h0c0,1.22.63,2,1.54,2s1.52-.77,1.52-1.99Z" fill="#fff"/><path d="m318.99,463.43c0-.45.36-.8.81-.8s.81.36.81.8-.35.8-.81.8-.81-.36-.81-.8Zm.08,1.69h1.46v6.21h-1.46v-6.21Z" fill="#fff"/><path d="m321.71,471.78v-.05s1.42,0,1.42,0l.02.05c.16.36.66.63,1.42.63.95,0,1.47-.5,1.47-1.29v-.9h-.03c-.35.66-1.05,1.08-1.94,1.08-1.56,0-2.56-1.2-2.56-3.13h0c0-1.97,1.01-3.18,2.58-3.18.88,0,1.56.47,1.91,1.18h.04v-1.05h1.46v6.04c0,1.41-1.13,2.35-2.93,2.35-1.65,0-2.68-.75-2.86-1.72Zm4.34-3.59h0c0-1.21-.62-1.97-1.52-1.97s-1.53.76-1.53,1.96h0c0,1.23.59,1.99,1.53,1.99s1.52-.77,1.52-1.97Z" fill="#fff"/><path d="m328.7,465.11h1.46v.97h.03c.32-.67.96-1.1,1.9-1.1,1.37,0,2.14.88,2.14,2.32v4.02h-1.46v-3.73c0-.88-.41-1.38-1.24-1.38s-1.37.61-1.37,1.51v3.6h-1.46v-6.21Z" fill="#fff"/><path d="m335.15,469.55h0c0-1.11.86-1.78,2.36-1.87l1.62-.1v-.43c0-.63-.41-1.01-1.15-1.01-.69,0-1.11.32-1.21.78v.05h-1.37v-.07c.09-1.1,1.05-1.93,2.62-1.93s2.55.82,2.55,2.07v4.27h-1.46v-.96h-.04c-.36.65-1.05,1.06-1.87,1.06-1.24,0-2.08-.77-2.08-1.88Zm2.51.76c.84,0,1.47-.56,1.47-1.29v-.47l-1.42.09c-.72.05-1.11.36-1.11.85h0c0,.52.42.83,1.06.83Z" fill="#fff"/><path d="m341.76,465.11h1.46v.97h.03c.32-.67.96-1.1,1.9-1.1,1.37,0,2.14.88,2.14,2.32v4.02h-1.46v-3.73c0-.88-.41-1.38-1.24-1.38s-1.37.61-1.37,1.51v3.6h-1.46v-6.21Z" fill="#fff"/></g></g><g><rect x="292.01" y="392.15" width="51.74" height="17.3" rx="2" ry="2" fill="#00223e"/><g><path d="m300.05,396.55h1.7l3.02,8.46h-1.59l-.71-2.19h-3.15l-.71,2.19h-1.58l3.02-8.46Zm-.35,5.1h2.38l-1.17-3.6h-.04l-1.18,3.6Z" fill="#fff"/><path d="m304.47,398.79h1.55l1.44,4.86h.04l1.44-4.86h1.52l-2.19,6.21h-1.61l-2.2-6.21Z" fill="#fff"/><path d="m311.09,397.11c0-.45.36-.8.81-.8s.81.36.81.8-.35.8-.81.8-.81-.36-.81-.8Zm.08,1.69h1.46v6.21h-1.46v-6.21Z" fill="#fff"/><path d="m313.81,405.45v-.05s1.42,0,1.42,0l.02.05c.16.36.66.63,1.42.63.95,0,1.47-.5,1.47-1.29v-.9h-.03c-.35.66-1.05,1.08-1.94,1.08-1.56,0-2.56-1.2-2.56-3.13h0c0-1.97,1.01-3.18,2.58-3.18.88,0,1.56.47,1.91,1.18h.04v-1.05h1.46v6.04c0,1.41-1.13,2.35-2.93,2.35-1.65,0-2.68-.75-2.86-1.72Zm4.34-3.59h0c0-1.21-.62-1.97-1.52-1.97s-1.53.76-1.53,1.96h0c0,1.23.59,1.99,1.53,1.99s1.52-.77,1.52-1.97Z" fill="#fff"/><path d="m320.8,398.79h1.46v.97h.03c.32-.67.96-1.1,1.9-1.1,1.37,0,2.14.88,2.14,2.32v4.02h-1.46v-3.73c0-.88-.41-1.38-1.24-1.38s-1.37.61-1.37,1.51v3.6h-1.46v-6.21Z" fill="#fff"/><path d="m327.23,401.9h0c0-2,1.2-3.23,3-3.23s3.01,1.22,3.01,3.22h0c0,2.03-1.18,3.24-3.01,3.24s-3.01-1.22-3.01-3.23Zm4.52,0h0c0-1.31-.6-2.05-1.52-2.05s-1.51.75-1.51,2.04h0c0,1.32.59,2.06,1.52,2.06s1.51-.75,1.51-2.05Z" fill="#fff"/><path d="m334.18,398.79h1.46v.97h.03c.32-.67.96-1.1,1.9-1.1,1.37,0,2.14.88,2.14,2.32v4.02h-1.46v-3.73c0-.88-.41-1.38-1.24-1.38s-1.37.61-1.37,1.51v3.6h-1.46v-6.21Z" fill="#fff"/></g></g><g><rect x="377.24" y="447.32" width="43.58" height="17.3" rx="2" ry="2" fill="#00223e"/><g><path d="m384.92,452.99h-2.53v-1.27h6.56v1.27h-2.53v7.18h-1.51v-7.18Z" fill="#fff"/><path d="m388.12,457.07h0c0-2,1.2-3.23,3-3.23s3.01,1.22,3.01,3.22h0c0,2.03-1.18,3.24-3.01,3.24s-3.01-1.22-3.01-3.23Zm4.52,0h0c0-1.31-.6-2.05-1.52-2.05s-1.51.75-1.51,2.04h0c0,1.32.59,2.06,1.52,2.06s1.51-.75,1.51-2.05Z" fill="#fff"/><path d="m395.04,457.97v-4.01h1.46v3.73c0,.88.41,1.38,1.24,1.38s1.37-.6,1.37-1.51v-3.6h1.46v6.21h-1.46v-.97h-.03c-.32.66-.96,1.1-1.9,1.1-1.37,0-2.14-.88-2.14-2.32Z" fill="#fff"/><path d="m401.81,451.72h1.46v8.46h-1.46v-8.46Z" fill="#fff"/><path d="m404.25,457.07h0c0-2,1.2-3.23,3-3.23s3.01,1.22,3.01,3.22h0c0,2.03-1.18,3.24-3.01,3.24s-3.01-1.22-3.01-3.23Zm4.52,0h0c0-1.31-.6-2.05-1.52-2.05s-1.51.75-1.51,2.04h0c0,1.32.59,2.06,1.52,2.06s1.51-.75,1.51-2.05Z" fill="#fff"/><path d="m411.2,453.96h1.46v.97h.03c.32-.67.96-1.1,1.9-1.1,1.37,0,2.14.88,2.14,2.32v4.02h-1.46v-3.73c0-.88-.41-1.38-1.24-1.38s-1.37.61-1.37,1.51v3.6h-1.46v-6.21Z" fill="#fff"/></g></g><g><rect x="359.35" y="412.76" width="98.82" height="17.3" rx="2" ry="2" fill="#00223e"/><g><path d="m367.39,417.15h1.7l3.02,8.46h-1.59l-.71-2.19h-3.15l-.71,2.19h-1.58l3.02-8.46Zm-.35,5.1h2.38l-1.17-3.6h-.04l-1.18,3.6Z" fill="#fff"/><path d="m372.82,417.71c0-.45.36-.8.81-.8s.81.36.81.8-.35.8-.81.8-.81-.36-.81-.8Zm.08,1.69h1.46v6.21h-1.46v-6.21Z" fill="#fff"/><path d="m377.16,422.51l-1.99-3.11h1.64l1.25,2.18h.04l1.24-2.18h1.59l-2,3.07,1.98,3.14h-1.59l-1.29-2.23h-.04l-1.28,2.23h-1.56l2.01-3.1Z" fill="#fff"/><path d="m381.56,421.52h3.78v1.3h-3.78v-1.3Z" fill="#fff"/><path d="m386.42,422.52h0c0-1.96,1.14-3.25,2.92-3.25s2.88,1.25,2.88,3.12v.47h-4.35c.02,1.09.62,1.73,1.57,1.73.73,0,1.2-.39,1.34-.8v-.04h1.38l-.02.06c-.19.96-1.11,1.92-2.73,1.92-1.86,0-2.99-1.24-2.99-3.21Zm1.46-.63h2.91c-.11-.98-.67-1.48-1.44-1.48s-1.35.52-1.47,1.48Z" fill="#fff"/><path d="m393.15,419.4h1.46v.97h.03c.32-.67.96-1.1,1.9-1.1,1.37,0,2.14.88,2.14,2.32v4.02h-1.46v-3.73c0-.88-.41-1.38-1.24-1.38s-1.37.61-1.37,1.51v3.6h-1.46v-6.21Z" fill="#fff"/><path d="m399.97,421.52h3.78v1.3h-3.78v-1.3Z" fill="#fff"/><path d="m405.23,417.15h3.26c1.71,0,2.88,1.13,2.88,2.82h0c0,1.7-1.17,2.84-2.88,2.84h-1.75v2.79h-1.51v-8.46Zm1.51,1.24v3.21h1.37c1.08,0,1.72-.59,1.72-1.6h0c0-1.03-.63-1.61-1.72-1.61h-1.37Z" fill="#fff"/><path d="m412.32,419.4h1.46v1.07h.03c.19-.75.71-1.2,1.42-1.2.18,0,.35.03.46.06v1.32c-.12-.05-.35-.08-.59-.08-.83,0-1.32.52-1.32,1.44v3.6h-1.46v-6.21Z" fill="#fff"/><path d="m415.95,422.5h0c0-2,1.2-3.23,3-3.23s3.01,1.22,3.01,3.22h0c0,2.03-1.18,3.24-3.01,3.24s-3.01-1.22-3.01-3.23Zm4.52,0h0c0-1.31-.6-2.05-1.52-2.05s-1.51.75-1.51,2.04h0c0,1.32.59,2.06,1.52,2.06s1.51-.75,1.51-2.05Z" fill="#fff"/><path d="m422.16,419.4h1.55l1.44,4.86h.04l1.44-4.86h1.52l-2.19,6.21h-1.61l-2.2-6.21Z" fill="#fff"/><path d="m428.34,422.52h0c0-1.96,1.14-3.25,2.92-3.25s2.88,1.25,2.88,3.12v.47h-4.35c.02,1.09.62,1.73,1.57,1.73.73,0,1.2-.39,1.34-.8v-.04h1.38l-.02.06c-.19.96-1.11,1.92-2.73,1.92-1.86,0-2.99-1.24-2.99-3.21Zm1.46-.63h2.91c-.11-.98-.67-1.48-1.44-1.48s-1.35.52-1.47,1.48Z" fill="#fff"/><path d="m435.07,419.4h1.46v.97h.03c.32-.67.96-1.1,1.9-1.1,1.37,0,2.14.88,2.14,2.32v4.02h-1.46v-3.73c0-.88-.41-1.38-1.24-1.38s-1.37.61-1.37,1.51v3.6h-1.46v-6.21Z" fill="#fff"/><path d="m441.51,422.49h0c0-1.99,1.17-3.23,2.98-3.23,1.63,0,2.65,1.04,2.74,2.28v.05s-1.37,0-1.37,0v-.05c-.13-.6-.58-1.09-1.35-1.09-.92,0-1.51.78-1.51,2.05h0c0,1.3.6,2.05,1.52,2.05.74,0,1.21-.44,1.34-1.09v-.05h1.39v.04c-.12,1.29-1.17,2.28-2.74,2.28-1.85,0-3-1.24-3-3.23Z" fill="#fff"/><path d="m447.86,422.52h0c0-1.96,1.14-3.25,2.92-3.25s2.88,1.25,2.88,3.12v.47h-4.35c.02,1.09.62,1.73,1.57,1.73.73,0,1.2-.39,1.34-.8v-.04h1.38l-.02.06c-.19.96-1.11,1.92-2.73,1.92-1.86,0-2.99-1.24-2.99-3.21Zm1.46-.63h2.91c-.11-.98-.67-1.48-1.44-1.48s-1.35.52-1.47,1.48Z" fill="#fff"/></g></g><g><rect x="316.49" y="336.36" width="34.54" height="17.3" rx="2" ry="2" fill="#00223e"/><g><path d="m322.09,340.76h1.51v7.18h3.84v1.27h-5.35v-8.46Z" fill="#fff"/><path d="m327.87,351.21v-1.11c.11.02.28.05.49.05.56,0,.87-.16,1.05-.68l.09-.25-2.23-6.22h1.59l1.45,4.97h.04l1.46-4.97h1.54l-2.23,6.42c-.47,1.37-1.2,1.85-2.5,1.85-.28,0-.57-.04-.75-.06Z" fill="#fff"/><path d="m333.54,346.11h0c0-2,1.2-3.23,3-3.23s3.01,1.22,3.01,3.22h0c0,2.03-1.18,3.24-3.01,3.24s-3.01-1.22-3.01-3.23Zm4.52,0h0c0-1.31-.6-2.05-1.52-2.05s-1.51.75-1.51,2.04h0c0,1.32.59,2.06,1.52,2.06s1.51-.75,1.51-2.05Z" fill="#fff"/><path d="m340.49,343h1.46v.97h.03c.32-.67.96-1.1,1.9-1.1,1.37,0,2.14.88,2.14,2.32v4.02h-1.46v-3.73c0-.88-.41-1.38-1.24-1.38s-1.37.61-1.37,1.51v3.6h-1.46v-6.21Z" fill="#fff"/></g></g><g><rect x="128.84" y="279.95" width="47.12" height="17.3" rx="2" ry="2" fill="#00223e"/><g><path d="m134.44,284.34h1.36l4.12,5.92h.04v-5.92h1.5v8.46h-1.35l-4.13-5.95h-.03v5.95h-1.51v-8.46Z" fill="#fff"/><path d="m142.41,291.03h0c0-1.11.86-1.78,2.36-1.87l1.62-.1v-.43c0-.63-.41-1.01-1.15-1.01-.69,0-1.11.32-1.21.78v.05h-1.37v-.07c.09-1.1,1.05-1.93,2.62-1.93s2.55.82,2.55,2.07v4.27h-1.46v-.96h-.04c-.36.65-1.05,1.06-1.87,1.06-1.24,0-2.08-.77-2.08-1.88Zm2.51.76c.84,0,1.47-.56,1.47-1.29v-.47l-1.42.09c-.72.05-1.11.36-1.11.85h0c0,.52.42.83,1.06.83Z" fill="#fff"/><path d="m149.03,286.59h1.46v.97h.03c.32-.67.96-1.1,1.9-1.1,1.37,0,2.14.88,2.14,2.32v4.02h-1.46v-3.73c0-.88-.41-1.38-1.24-1.38s-1.37.61-1.37,1.51v3.6h-1.46v-6.21Z" fill="#fff"/><path d="m156.12,291.12v-3.4h-.88v-1.12h.88v-1.58h1.48v1.58h1.15v1.12h-1.15v3.28c0,.61.27.8.8.8.14,0,.25-.02.35-.02v1.1c-.17.02-.43.05-.72.05-1.3,0-1.92-.53-1.92-1.8Z" fill="#fff"/><path d="m159.38,289.71h0c0-1.96,1.14-3.25,2.92-3.25s2.88,1.25,2.88,3.12v.47h-4.35c.02,1.09.62,1.73,1.57,1.73.73,0,1.2-.39,1.34-.8v-.04h1.38l-.02.06c-.19.96-1.11,1.92-2.73,1.92-1.86,0-2.99-1.24-2.99-3.21Zm1.46-.63h2.91c-.11-.98-.67-1.48-1.44-1.48s-1.35.52-1.47,1.48Z" fill="#fff"/><path d="m165.85,290.99v-.05s1.43,0,1.43,0v.05c.12.53.53.85,1.27.85s1.14-.29,1.14-.74h0c0-.38-.22-.59-.86-.74l-1.03-.23c-1.19-.26-1.79-.84-1.79-1.76h0c0-1.14.99-1.91,2.49-1.91s2.45.85,2.5,1.92v.06s-1.35,0-1.35,0v-.05c-.07-.5-.47-.86-1.15-.86-.64,0-1.05.3-1.05.76h0c0,.36.24.6.88.74l1.04.23c1.28.29,1.78.79,1.78,1.69h0c0,1.18-1.08,1.96-2.61,1.96-1.63,0-2.56-.77-2.69-1.93Z" fill="#fff"/></g></g><g><rect x="415.03" y="225.18" width="68.47" height="17.3" rx="2" ry="2" fill="#00223e"/><g><path d="m420.29,235.75v-.09s1.44,0,1.44,0v.07c.12.73.87,1.18,1.93,1.18s1.73-.47,1.73-1.2h0c0-.64-.44-.98-1.53-1.21l-.91-.19c-1.66-.35-2.48-1.12-2.48-2.38h0c0-1.49,1.31-2.5,3.13-2.5s3.05.97,3.14,2.42v.1s-1.44,0-1.44,0v-.07c-.11-.74-.76-1.18-1.71-1.18-.99,0-1.61.47-1.61,1.14h0c0,.6.46.96,1.48,1.17l.91.19c1.76.36,2.53,1.08,2.53,2.4h0c0,1.58-1.24,2.58-3.3,2.58-1.94,0-3.22-.91-3.32-2.43Z" fill="#fff"/><path d="m428.29,236.35v-3.4h-.88v-1.12h.88v-1.58h1.48v1.58h1.15v1.12h-1.15v3.28c0,.61.27.8.8.8.14,0,.25-.02.35-.02v1.1c-.17.02-.43.05-.72.05-1.3,0-1.92-.53-1.92-1.8Z" fill="#fff"/><path d="m431.92,231.82h1.46v1.07h.03c.19-.75.71-1.2,1.42-1.2.18,0,.35.03.46.06v1.32c-.12-.05-.35-.08-.59-.08-.83,0-1.32.52-1.32,1.44v3.6h-1.46v-6.21Z" fill="#fff"/><path d="m435.67,236.26h0c0-1.11.86-1.78,2.36-1.87l1.62-.1v-.43c0-.63-.41-1.01-1.15-1.01-.69,0-1.11.32-1.21.78v.05h-1.37v-.07c.09-1.1,1.05-1.93,2.62-1.93s2.55.82,2.55,2.07v4.27h-1.46v-.96h-.04c-.36.65-1.05,1.06-1.87,1.06-1.24,0-2.08-.77-2.08-1.88Zm2.51.76c.84,0,1.47-.56,1.47-1.29v-.47l-1.42.09c-.72.05-1.11.36-1.11.85h0c0,.52.42.83,1.06.83Z" fill="#fff"/><path d="m442.02,236.23v-.05s1.43,0,1.43,0v.05c.12.53.53.85,1.27.85s1.14-.29,1.14-.74h0c0-.38-.22-.59-.86-.74l-1.03-.23c-1.19-.26-1.79-.84-1.79-1.76h0c0-1.14.99-1.91,2.49-1.91s2.45.85,2.5,1.92v.06s-1.35,0-1.35,0v-.05c-.07-.5-.47-.86-1.15-.86-.64,0-1.05.3-1.05.76h0c0,.36.24.6.88.74l1.04.23c1.28.29,1.78.79,1.78,1.69h0c0,1.18-1.08,1.96-2.61,1.96-1.63,0-2.56-.77-2.69-1.93Z" fill="#fff"/><path d="m449.78,236.98h-.04v1.05h-1.46v-8.46h1.46v3.31h.04c.35-.74,1.06-1.2,1.94-1.2,1.56,0,2.56,1.22,2.56,3.23h0c0,2-1,3.23-2.57,3.23-.9,0-1.58-.45-1.93-1.18Zm3.01-2.05h0c0-1.24-.59-2-1.52-2s-1.53.79-1.53,2h0c0,1.22.63,2,1.53,2s1.52-.76,1.52-2Z" fill="#fff"/><path d="m454.96,234.93h0c0-2,1.2-3.23,3-3.23s3.01,1.22,3.01,3.22h0c0,2.03-1.18,3.24-3.01,3.24s-3.01-1.22-3.01-3.23Zm4.52,0h0c0-1.31-.6-2.05-1.52-2.05s-1.51.75-1.51,2.04h0c0,1.32.59,2.06,1.52,2.06s1.51-.75,1.51-2.05Z" fill="#fff"/><path d="m461.88,235.84v-4.01h1.46v3.73c0,.88.41,1.38,1.24,1.38s1.37-.6,1.37-1.51v-3.6h1.46v6.21h-1.46v-.97h-.03c-.32.66-.96,1.1-1.9,1.1-1.37,0-2.14-.88-2.14-2.32Z" fill="#fff"/><path d="m468.6,231.82h1.46v1.07h.03c.19-.75.71-1.2,1.42-1.2.18,0,.35.03.46.06v1.32c-.12-.05-.35-.08-.59-.08-.83,0-1.32.52-1.32,1.44v3.6h-1.46v-6.21Z" fill="#fff"/><path d="m472.43,238.48v-.05s1.42,0,1.42,0l.02.05c.16.36.66.63,1.42.63.95,0,1.47-.5,1.47-1.29v-.9h-.03c-.35.66-1.05,1.08-1.94,1.08-1.56,0-2.56-1.2-2.56-3.13h0c0-1.97,1.01-3.18,2.58-3.18.88,0,1.56.47,1.91,1.18h.04v-1.05h1.46v6.04c0,1.41-1.13,2.35-2.93,2.35-1.65,0-2.68-.75-2.86-1.72Zm4.34-3.59h0c0-1.21-.62-1.97-1.52-1.97s-1.53.76-1.53,1.96h0c0,1.23.59,1.99,1.53,1.99s1.52-.77,1.52-1.97Z" fill="#fff"/></g></g><g><rect x="301.36" y="221.76" width="96.29" height="17.3" rx="2" ry="2" fill="#00223e"/><g><path d="m306.96,226.16h3.09c2.52,0,4.02,1.52,4.02,4.2h0c0,2.69-1.49,4.26-4.02,4.26h-3.09v-8.46Zm2.93,7.18c1.7,0,2.64-1.04,2.64-2.96h0c0-1.9-.96-2.94-2.64-2.94h-1.42v5.9h1.42Z" fill="#fff"/><path d="m315.09,226.71c0-.45.36-.8.81-.8s.81.36.81.8-.35.8-.81.8-.81-.36-.81-.8Zm.08,1.69h1.46v6.21h-1.46v-6.21Z" fill="#fff"/><path d="m317.6,232.81v-.05s1.43,0,1.43,0v.05c.12.53.53.85,1.27.85s1.14-.29,1.14-.74h0c0-.38-.22-.59-.86-.74l-1.03-.23c-1.19-.26-1.79-.84-1.79-1.76h0c0-1.14.99-1.91,2.49-1.91s2.45.85,2.5,1.92v.06s-1.35,0-1.35,0v-.05c-.07-.5-.47-.86-1.15-.86-.64,0-1.05.3-1.05.76h0c0,.36.24.6.88.74l1.04.23c1.28.29,1.78.79,1.78,1.69h0c0,1.18-1.08,1.96-2.61,1.96-1.63,0-2.56-.77-2.69-1.93Z" fill="#fff"/><path d="m323.82,228.4h1.46v.97h.03c.32-.67.96-1.1,1.9-1.1,1.37,0,2.14.88,2.14,2.32v4.02h-1.46v-3.73c0-.88-.41-1.38-1.24-1.38s-1.37.61-1.37,1.51v3.6h-1.46v-6.21Z" fill="#fff"/><path d="m330.26,231.52h0c0-1.96,1.14-3.25,2.92-3.25s2.88,1.25,2.88,3.12v.47h-4.35c.02,1.09.62,1.73,1.57,1.73.73,0,1.2-.39,1.34-.8v-.04h1.38l-.02.06c-.19.96-1.11,1.92-2.73,1.92-1.86,0-2.99-1.24-2.99-3.21Zm1.46-.63h2.91c-.11-.98-.67-1.48-1.44-1.48s-1.35.52-1.47,1.48Z" fill="#fff"/><path d="m336.84,236.61v-1.11c.11.02.28.05.49.05.56,0,.87-.16,1.05-.68l.09-.25-2.23-6.22h1.59l1.45,4.97h.04l1.46-4.97h1.54l-2.23,6.42c-.47,1.37-1.2,1.85-2.5,1.85-.28,0-.57-.04-.75-.06Z" fill="#fff"/><path d="m343.03,226.16h1.46v8.46h-1.46v-8.46Z" fill="#fff"/><path d="m345.49,232.84h0c0-1.11.86-1.78,2.36-1.87l1.62-.1v-.43c0-.63-.41-1.01-1.15-1.01-.69,0-1.11.32-1.21.78v.05h-1.37v-.07c.09-1.1,1.05-1.93,2.62-1.93s2.55.82,2.55,2.07v4.27h-1.46v-.96h-.04c-.36.65-1.05,1.06-1.87,1.06-1.24,0-2.08-.77-2.08-1.88Zm2.51.76c.84,0,1.47-.56,1.47-1.29v-.47l-1.42.09c-.72.05-1.11.36-1.11.85h0c0,.52.42.83,1.06.83Z" fill="#fff"/><path d="m352.1,228.4h1.46v.97h.03c.32-.67.96-1.1,1.9-1.1,1.37,0,2.14.88,2.14,2.32v4.02h-1.46v-3.73c0-.88-.41-1.38-1.24-1.38s-1.37.61-1.37,1.51v3.6h-1.46v-6.21Z" fill="#fff"/><path d="m358.54,231.51h0c0-2.01,1-3.23,2.56-3.23.88,0,1.59.45,1.94,1.2h.04v-3.31h1.46v8.46h-1.46v-1.05h-.04c-.35.73-1.04,1.18-1.93,1.18-1.57,0-2.57-1.23-2.57-3.23Zm4.54,0h0c0-1.22-.63-2-1.53-2s-1.52.76-1.52,2h0c0,1.24.58,2,1.52,2s1.53-.78,1.53-2Z" fill="#fff"/><path d="m368.31,226.16h3.26c1.71,0,2.88,1.13,2.88,2.82h0c0,1.7-1.17,2.84-2.88,2.84h-1.75v2.79h-1.51v-8.46Zm1.51,1.24v3.21h1.37c1.08,0,1.72-.59,1.72-1.6h0c0-1.03-.63-1.61-1.72-1.61h-1.37Z" fill="#fff"/><path d="m374.7,232.84h0c0-1.11.86-1.78,2.36-1.87l1.62-.1v-.43c0-.63-.41-1.01-1.15-1.01-.69,0-1.11.32-1.21.78v.05h-1.37v-.07c.09-1.1,1.05-1.93,2.62-1.93s2.55.82,2.55,2.07v4.27h-1.46v-.96h-.04c-.36.65-1.05,1.06-1.87,1.06-1.24,0-2.08-.77-2.08-1.88Zm2.51.76c.84,0,1.47-.56,1.47-1.29v-.47l-1.42.09c-.72.05-1.11.36-1.11.85h0c0,.52.42.83,1.06.83Z" fill="#fff"/><path d="m381.32,228.4h1.46v1.07h.03c.19-.75.71-1.2,1.42-1.2.18,0,.35.03.46.06v1.32c-.12-.05-.35-.08-.59-.08-.83,0-1.32.52-1.32,1.44v3.6h-1.46v-6.21Z" fill="#fff"/><path d="m385.4,226.71c0-.45.36-.8.81-.8s.81.36.81.8-.35.8-.81.8-.81-.36-.81-.8Zm.08,1.69h1.46v6.21h-1.46v-6.21Z" fill="#fff"/><path d="m387.92,232.81v-.05s1.43,0,1.43,0v.05c.12.53.53.85,1.27.85s1.14-.29,1.14-.74h0c0-.38-.22-.59-.86-.74l-1.03-.23c-1.19-.26-1.79-.84-1.79-1.76h0c0-1.14.99-1.91,2.49-1.91s2.45.85,2.5,1.92v.06s-1.35,0-1.35,0v-.05c-.07-.5-.47-.86-1.15-.86-.64,0-1.05.3-1.05.76h0c0,.36.24.6.88.74l1.04.23c1.28.29,1.78.79,1.78,1.69h0c0,1.18-1.08,1.96-2.61,1.96-1.63,0-2.56-.77-2.69-1.93Z" fill="#fff"/></g></g><g><rect x="289.53" y="151.11" width="30.49" height="17.3" rx="2" ry="2" fill="#00223e"/><g><path d="m295.13,155.51h1.51v7.18h3.84v1.27h-5.35v-8.46Z" fill="#fff"/><path d="m301.38,156.06c0-.45.36-.8.81-.8s.81.36.81.8-.35.8-.81.8-.81-.36-.81-.8Zm.08,1.69h1.46v6.21h-1.46v-6.21Z" fill="#fff"/><path d="m304.2,155.51h1.46v8.46h-1.46v-8.46Z" fill="#fff"/><path d="m306.94,155.51h1.46v8.46h-1.46v-8.46Z" fill="#fff"/><path d="m309.38,160.87h0c0-1.96,1.14-3.25,2.92-3.25s2.88,1.25,2.88,3.12v.47h-4.35c.02,1.09.62,1.73,1.57,1.73.73,0,1.2-.39,1.34-.8v-.04h1.38l-.02.06c-.19.96-1.11,1.92-2.73,1.92-1.86,0-2.99-1.24-2.99-3.21Zm1.46-.63h2.91c-.11-.98-.67-1.48-1.44-1.48s-1.35.52-1.47,1.48Z" fill="#fff"/></g></g><g><rect x="268.99" y="120.93" width="41.81" height="17.3" rx="2" ry="2" fill="#00223e"/><g><path d="m274.31,129.55h0c0-2.71,1.54-4.37,3.97-4.37,1.95,0,3.38,1.21,3.6,2.94v.06s-1.48,0-1.48,0l-.03-.11c-.25-.97-.99-1.57-2.09-1.57-1.48,0-2.42,1.18-2.42,3.05h0c0,1.89.95,3.07,2.42,3.07,1.08,0,1.83-.58,2.11-1.62l.02-.06h1.48v.06c-.23,1.73-1.66,2.94-3.61,2.94-2.43,0-3.97-1.68-3.97-4.38Z" fill="#fff"/><path d="m282.62,132.01h0c0-1.11.86-1.78,2.36-1.87l1.62-.1v-.43c0-.63-.41-1.01-1.15-1.01-.69,0-1.11.32-1.21.78v.05h-1.37v-.07c.09-1.1,1.05-1.93,2.62-1.93s2.55.82,2.55,2.07v4.27h-1.46v-.96h-.04c-.36.65-1.05,1.06-1.87,1.06-1.24,0-2.08-.77-2.08-1.88Zm2.51.76c.84,0,1.47-.56,1.47-1.29v-.47l-1.42.09c-.72.05-1.11.36-1.11.85h0c0,.52.42.83,1.06.83Z" fill="#fff"/><path d="m289.27,125.32h1.46v8.46h-1.46v-8.46Z" fill="#fff"/><path d="m291.73,132.01h0c0-1.11.86-1.78,2.36-1.87l1.62-.1v-.43c0-.63-.41-1.01-1.15-1.01-.69,0-1.11.32-1.21.78v.05h-1.37v-.07c.09-1.1,1.05-1.93,2.62-1.93s2.55.82,2.55,2.07v4.27h-1.46v-.96h-.04c-.36.65-1.05,1.06-1.87,1.06-1.24,0-2.08-.77-2.08-1.88Zm2.51.76c.84,0,1.47-.56,1.47-1.29v-.47l-1.42.09c-.72.05-1.11.36-1.11.85h0c0,.52.42.83,1.06.83Z" fill="#fff"/><path d="m298.3,125.88c0-.45.36-.8.81-.8s.81.36.81.8-.35.8-.81.8-.81-.36-.81-.8Zm.08,1.69h1.46v6.21h-1.46v-6.21Z" fill="#fff"/><path d="m300.82,131.97v-.05s1.43,0,1.43,0v.05c.12.53.53.85,1.27.85s1.14-.29,1.14-.74h0c0-.38-.22-.59-.86-.74l-1.03-.23c-1.19-.26-1.79-.84-1.79-1.76h0c0-1.14.99-1.91,2.49-1.91s2.45.85,2.5,1.92v.06s-1.35,0-1.35,0v-.05c-.07-.5-.47-.86-1.15-.86-.64,0-1.05.3-1.05.76h0c0,.36.24.6.88.74l1.04.23c1.28.29,1.78.79,1.78,1.69h0c0,1.18-1.08,1.96-2.61,1.96-1.63,0-2.56-.77-2.69-1.93Z" fill="#fff"/></g></g><g><rect x="162.24" y="109.7" width="51.63" height="17.3" rx="2" ry="2" fill="#00223e"/><g><path d="m170.28,114.1h1.7l3.02,8.46h-1.59l-.71-2.19h-3.15l-.71,2.19h-1.58l3.02-8.46Zm-.35,5.1h2.38l-1.17-3.6h-.04l-1.18,3.6Z" fill="#fff"/><path d="m175.46,120.75v-.05s1.43,0,1.43,0v.05c.12.53.53.85,1.27.85s1.14-.29,1.14-.74h0c0-.38-.22-.59-.86-.74l-1.03-.23c-1.19-.26-1.79-.84-1.79-1.76h0c0-1.14.99-1.91,2.49-1.91s2.45.85,2.5,1.92v.06s-1.35,0-1.35,0v-.05c-.07-.5-.47-.86-1.15-.86-.64,0-1.05.3-1.05.76h0c0,.36.24.6.88.74l1.04.23c1.28.29,1.78.79,1.78,1.69h0c0,1.18-1.08,1.96-2.61,1.96-1.63,0-2.56-.77-2.69-1.93Z" fill="#fff"/><path d="m181.72,114.1h1.46v3.29h.04c.32-.74.98-1.17,1.92-1.17,1.34,0,2.19.97,2.19,2.47v3.87h-1.46v-3.58c0-.96-.48-1.53-1.32-1.53s-1.37.63-1.37,1.53v3.58h-1.46v-8.46Z" fill="#fff"/><path d="m188.9,117.46h-.85v-1.12h.85v-.59c0-1.21.57-1.78,1.92-1.78.29,0,.6.02.78.06v1.02c-.12-.02-.28-.03-.44-.03-.57,0-.83.26-.83.77v.55h1.25v1.12h-1.22v5.09h-1.46v-5.09Z" fill="#fff"/><path d="m191.79,119.44h0c0-2,1.2-3.23,3-3.23s3.01,1.22,3.01,3.22h0c0,2.03-1.18,3.24-3.01,3.24s-3.01-1.22-3.01-3.23Zm4.52,0h0c0-1.31-.6-2.05-1.52-2.05s-1.51.75-1.51,2.04h0c0,1.32.59,2.06,1.52,2.06s1.51-.75,1.51-2.05Z" fill="#fff"/><path d="m198.74,116.34h1.46v1.07h.03c.19-.75.71-1.2,1.42-1.2.18,0,.35.03.46.06v1.32c-.12-.05-.35-.08-.59-.08-.83,0-1.32.52-1.32,1.44v3.6h-1.46v-6.21Z" fill="#fff"/><path d="m202.37,119.44h0c0-2.01,1-3.23,2.56-3.23.88,0,1.59.45,1.94,1.2h.04v-3.31h1.46v8.46h-1.46v-1.05h-.04c-.35.73-1.04,1.18-1.93,1.18-1.57,0-2.57-1.23-2.57-3.23Zm4.54,0h0c0-1.22-.63-2-1.53-2s-1.52.76-1.52,2h0c0,1.24.58,2,1.52,2s1.53-.78,1.53-2Z" fill="#fff"/></g></g><g><rect x="202.25" y="83.05" width="59.42" height="17.3" rx="2" ry="2" fill="#00223e"/><g><path d="m207.86,87.45h5.47v1.27h-3.96v2.28h3.74v1.22h-3.74v2.41h3.96v1.27h-5.47v-8.46Z" fill="#fff"/><path d="m216.03,94.85h-.04v1.05h-1.46v-8.46h1.46v3.31h.04c.35-.74,1.06-1.2,1.94-1.2,1.56,0,2.56,1.22,2.56,3.23h0c0,2-1,3.23-2.57,3.23-.9,0-1.58-.45-1.93-1.18Zm3.01-2.05h0c0-1.24-.59-2-1.52-2s-1.53.79-1.53,2h0c0,1.22.63,2,1.53,2s1.52-.76,1.52-2Z" fill="#fff"/><path d="m223.01,94.85h-.04v1.05h-1.46v-8.46h1.46v3.31h.04c.35-.74,1.06-1.2,1.94-1.2,1.56,0,2.56,1.22,2.56,3.23h0c0,2-1,3.23-2.57,3.23-.9,0-1.58-.45-1.93-1.18Zm3.01-2.05h0c0-1.24-.59-2-1.52-2s-1.53.79-1.53,2h0c0,1.22.63,2,1.53,2s1.52-.76,1.52-2Z" fill="#fff"/><path d="m228.18,94.1v-.05s1.43,0,1.43,0v.05c.12.53.53.85,1.27.85s1.14-.29,1.14-.74h0c0-.38-.22-.59-.86-.74l-1.03-.23c-1.19-.26-1.79-.84-1.79-1.76h0c0-1.14.99-1.91,2.49-1.91s2.45.85,2.5,1.92v.06s-1.35,0-1.35,0v-.05c-.07-.5-.47-.86-1.15-.86-.64,0-1.05.3-1.05.76h0c0,.36.24.6.88.74l1.04.23c1.28.29,1.78.79,1.78,1.69h0c0,1.18-1.08,1.96-2.61,1.96-1.63,0-2.56-.77-2.69-1.93Z" fill="#fff"/><path d="m234.81,90.82h-.85v-1.12h.85v-.59c0-1.21.57-1.78,1.92-1.78.29,0,.6.02.78.06v1.02c-.12-.02-.28-.03-.44-.03-.57,0-.83.26-.83.77v.55h1.25v1.12h-1.22v5.09h-1.46v-5.09Z" fill="#fff"/><path d="m238.49,87.45h1.46v8.46h-1.46v-8.46Z" fill="#fff"/><path d="m240.93,92.81h0c0-1.96,1.14-3.25,2.92-3.25s2.88,1.25,2.88,3.12v.47h-4.35c.02,1.09.62,1.73,1.57,1.73.73,0,1.2-.39,1.34-.8v-.04h1.38l-.02.06c-.19.96-1.11,1.92-2.73,1.92-1.86,0-2.99-1.24-2.99-3.21Zm1.46-.63h2.91c-.11-.98-.67-1.48-1.44-1.48s-1.35.52-1.47,1.48Z" fill="#fff"/><path d="m247.4,92.81h0c0-1.96,1.14-3.25,2.92-3.25s2.88,1.25,2.88,3.12v.47h-4.35c.02,1.09.62,1.73,1.57,1.73.73,0,1.2-.39,1.34-.8v-.04h1.38l-.02.06c-.19.96-1.11,1.92-2.73,1.92-1.86,0-2.99-1.24-2.99-3.21Zm1.46-.63h2.91c-.11-.98-.67-1.48-1.44-1.48s-1.35.52-1.47,1.48Z" fill="#fff"/><path d="m254.53,94.22v-3.4h-.88v-1.12h.88v-1.58h1.48v1.58h1.15v1.12h-1.15v3.28c0,.61.27.8.8.8.14,0,.25-.02.35-.02v1.1c-.17.02-.43.05-.72.05-1.3,0-1.92-.53-1.92-1.8Z" fill="#fff"/></g></g><g><rect x="309.45" y="76.25" width="71.04" height="17.3" rx="2" ry="2" fill="#00223e"/><g><path d="m317.49,80.65h1.7l3.02,8.46h-1.59l-.71-2.19h-3.15l-.71,2.19h-1.58l3.02-8.46Zm-.35,5.1h2.38l-1.17-3.6h-.04l-1.18,3.6Z" fill="#fff"/><path d="m322.97,82.89h1.46v1h.03c.26-.68.9-1.12,1.72-1.12.87,0,1.49.46,1.72,1.25h.04c.3-.77,1.04-1.25,1.93-1.25,1.22,0,2.03.83,2.03,2.07v4.27h-1.46v-3.9c0-.77-.4-1.21-1.11-1.21s-1.18.52-1.18,1.27v3.84h-1.42v-3.98c0-.7-.42-1.13-1.1-1.13s-1.2.55-1.2,1.31v3.8h-1.46v-6.21Z" fill="#fff"/><path d="m332.8,87.3v-.05s1.43,0,1.43,0v.05c.12.53.53.85,1.27.85s1.14-.29,1.14-.74h0c0-.38-.22-.59-.86-.74l-1.03-.23c-1.19-.26-1.79-.84-1.79-1.76h0c0-1.14.99-1.91,2.49-1.91s2.45.85,2.5,1.92v.06s-1.35,0-1.35,0v-.05c-.07-.5-.47-.86-1.15-.86-.64,0-1.05.3-1.05.76h0c0,.36.24.6.88.74l1.04.23c1.28.29,1.78.79,1.78,1.69h0c0,1.18-1.08,1.96-2.61,1.96-1.63,0-2.56-.77-2.69-1.93Z" fill="#fff"/><path d="m339.41,87.42v-3.4h-.88v-1.12h.88v-1.58h1.48v1.58h1.15v1.12h-1.15v3.28c0,.61.27.8.8.8.14,0,.25-.02.35-.02v1.1c-.17.02-.43.05-.72.05-1.3,0-1.92-.53-1.92-1.8Z" fill="#fff"/><path d="m342.67,86.02h0c0-1.96,1.14-3.25,2.92-3.25s2.88,1.25,2.88,3.12v.47h-4.35c.02,1.09.62,1.73,1.57,1.73.73,0,1.2-.39,1.34-.8v-.04h1.38l-.02.06c-.19.96-1.11,1.92-2.73,1.92-1.86,0-2.99-1.24-2.99-3.21Zm1.46-.63h2.91c-.11-.98-.67-1.48-1.44-1.48s-1.35.52-1.47,1.48Z" fill="#fff"/><path d="m349.4,82.89h1.46v1.07h.03c.19-.75.71-1.2,1.42-1.2.18,0,.35.03.46.06v1.32c-.12-.05-.35-.08-.59-.08-.83,0-1.32.52-1.32,1.44v3.6h-1.46v-6.21Z" fill="#fff"/><path d="m353.04,86h0c0-2.01,1-3.23,2.56-3.23.88,0,1.59.45,1.94,1.2h.04v-3.31h1.46v8.46h-1.46v-1.05h-.04c-.35.73-1.04,1.18-1.93,1.18-1.57,0-2.57-1.23-2.57-3.23Zm4.54,0h0c0-1.22-.63-2-1.53-2s-1.52.76-1.52,2h0c0,1.24.58,2,1.52,2s1.53-.78,1.53-2Z" fill="#fff"/><path d="m360.01,87.33h0c0-1.11.86-1.78,2.36-1.87l1.62-.1v-.43c0-.63-.41-1.01-1.15-1.01-.69,0-1.11.32-1.21.78v.05h-1.37v-.07c.09-1.1,1.05-1.93,2.62-1.93s2.55.82,2.55,2.07v4.27h-1.46v-.96h-.04c-.36.65-1.05,1.06-1.87,1.06-1.24,0-2.08-.77-2.08-1.88Zm2.51.76c.84,0,1.47-.56,1.47-1.29v-.47l-1.42.09c-.72.05-1.11.36-1.11.85h0c0,.52.42.83,1.06.83Z" fill="#fff"/><path d="m366.62,82.89h1.46v1h.03c.26-.68.9-1.12,1.72-1.12.87,0,1.49.46,1.72,1.25h.04c.3-.77,1.04-1.25,1.93-1.25,1.22,0,2.03.83,2.03,2.07v4.27h-1.46v-3.9c0-.77-.4-1.21-1.11-1.21s-1.18.52-1.18,1.27v3.84h-1.42v-3.98c0-.7-.42-1.13-1.1-1.13s-1.2.55-1.2,1.31v3.8h-1.46v-6.21Z" fill="#fff"/></g></g><g><rect x="370.59" y="108.25" width="64.95" height="17.3" rx="2" ry="2" fill="#00223e"/><g><path d="m376.19,112.64h3.38c1.8,0,2.91,1,2.91,2.64h0c0,1.15-.61,2.07-1.59,2.43l1.85,3.39h-1.72l-1.66-3.16h-1.63v3.16h-1.51v-8.46Zm3.22,4.1c.96,0,1.52-.53,1.52-1.44h0c0-.9-.6-1.44-1.55-1.44h-1.68v2.87h1.71Z" fill="#fff"/><path d="m383.25,117.99h0c0-2,1.2-3.23,3-3.23s3.01,1.22,3.01,3.22h0c0,2.03-1.18,3.24-3.01,3.24s-3.01-1.22-3.01-3.23Zm4.52,0h0c0-1.31-.6-2.05-1.52-2.05s-1.51.75-1.51,2.04h0c0,1.32.59,2.06,1.52,2.06s1.51-.75,1.51-2.05Z" fill="#fff"/><path d="m390.59,119.42v-3.4h-.88v-1.12h.88v-1.58h1.48v1.58h1.15v1.12h-1.15v3.28c0,.61.27.8.8.8.14,0,.25-.02.35-.02v1.1c-.17.02-.43.05-.72.05-1.3,0-1.92-.53-1.92-1.8Z" fill="#fff"/><path d="m394.62,119.42v-3.4h-.88v-1.12h.88v-1.58h1.48v1.58h1.15v1.12h-1.15v3.28c0,.61.27.8.8.8.14,0,.25-.02.35-.02v1.1c-.17.02-.43.05-.72.05-1.3,0-1.92-.53-1.92-1.8Z" fill="#fff"/><path d="m397.88,118.01h0c0-1.96,1.14-3.25,2.92-3.25s2.88,1.25,2.88,3.12v.47h-4.35c.02,1.09.62,1.73,1.57,1.73.73,0,1.2-.39,1.34-.8v-.04h1.38l-.02.06c-.19.96-1.11,1.92-2.73,1.92-1.86,0-2.99-1.24-2.99-3.21Zm1.46-.63h2.91c-.11-.98-.67-1.48-1.44-1.48s-1.35.52-1.47,1.48Z" fill="#fff"/><path d="m404.61,114.89h1.46v1.07h.03c.19-.75.71-1.2,1.42-1.2.18,0,.35.03.46.06v1.32c-.12-.05-.35-.08-.59-.08-.83,0-1.32.52-1.32,1.44v3.6h-1.46v-6.21Z" fill="#fff"/><path d="m408.24,117.99h0c0-2.01,1-3.23,2.56-3.23.88,0,1.59.45,1.94,1.2h.04v-3.31h1.46v8.46h-1.46v-1.05h-.04c-.35.73-1.04,1.18-1.93,1.18-1.57,0-2.57-1.23-2.57-3.23Zm4.54,0h0c0-1.22-.63-2-1.53-2s-1.52.76-1.52,2h0c0,1.24.58,2,1.52,2s1.53-.78,1.53-2Z" fill="#fff"/><path d="m415.21,119.33h0c0-1.11.86-1.78,2.36-1.87l1.62-.1v-.43c0-.63-.41-1.01-1.15-1.01-.69,0-1.11.32-1.21.78v.05h-1.37v-.07c.09-1.1,1.05-1.93,2.62-1.93s2.55.82,2.55,2.07v4.27h-1.46v-.96h-.04c-.36.65-1.05,1.06-1.87,1.06-1.24,0-2.08-.77-2.08-1.88Zm2.51.76c.84,0,1.47-.56,1.47-1.29v-.47l-1.42.09c-.72.05-1.11.36-1.11.85h0c0,.52.42.83,1.06.83Z" fill="#fff"/><path d="m421.83,114.89h1.46v1h.03c.26-.68.9-1.12,1.72-1.12.87,0,1.49.46,1.72,1.25h.04c.3-.77,1.04-1.25,1.93-1.25,1.22,0,2.03.83,2.03,2.07v4.27h-1.46v-3.9c0-.77-.4-1.21-1.11-1.21s-1.18.52-1.18,1.27v3.84h-1.42v-3.98c0-.7-.42-1.13-1.1-1.13s-1.2.55-1.2,1.31v3.8h-1.46v-6.21Z" fill="#fff"/></g></g><g><path d="m43.68,454.31h5.85v1.52h-4v2.12h3.78v1.44h-3.78v2.22h4v1.52h-5.85v-8.83Z" fill="#0074ee"/><path d="m50.68,460.81v-4.23h1.79v3.86c0,.86.4,1.35,1.21,1.35s1.31-.59,1.31-1.44v-3.77h1.79v6.56h-1.79v-1.08h-.04c-.34.75-1.01,1.22-2,1.22-1.44,0-2.26-.92-2.26-2.46Z" fill="#0074ee"/><path d="m57.93,456.58h1.79v1.14h.04c.2-.81.73-1.28,1.49-1.28.2,0,.38.03.51.07v1.57c-.15-.06-.39-.1-.65-.1-.88,0-1.39.53-1.39,1.48v3.67h-1.79v-6.56Z" fill="#0074ee"/><path d="m62.03,459.86h0c0-2.12,1.29-3.42,3.24-3.42s3.25,1.28,3.25,3.4h0c0,2.15-1.27,3.43-3.25,3.43s-3.25-1.28-3.25-3.41Zm4.68,0h0c0-1.28-.57-2.01-1.44-2.01s-1.43.73-1.43,2h0c0,1.3.56,2.03,1.44,2.03s1.43-.73,1.43-2.01Z" fill="#0074ee"/><path d="m69.17,461.19v-.06s1.74,0,1.74,0v.06c.13.51.51.81,1.23.81.67,0,1.08-.26,1.08-.69h0c0-.35-.22-.56-.86-.7l-1.11-.23c-1.27-.27-1.92-.91-1.92-1.88h0c0-1.25,1.08-2.06,2.75-2.06s2.72.92,2.76,2.07v.06h-1.65v-.05c-.07-.47-.45-.83-1.11-.83-.62,0-1,.28-1,.7h0c0,.34.23.56.89.7l1.11.24c1.37.29,1.93.83,1.93,1.79h0c0,1.29-1.18,2.14-2.87,2.14-1.82,0-2.83-.84-2.97-2.08Z" fill="#0074ee"/><path d="m76.35,461.3v-3.38h-.91v-1.35h.91v-1.6h1.81v1.6h1.2v1.35h-1.2v3.18c0,.61.27.82.81.82.16,0,.28-.02.39-.03v1.31c-.2.03-.49.07-.86.07-1.46,0-2.14-.56-2.14-1.97Z" fill="#0074ee"/><path d="m80.03,461.26h0c0-1.21.92-1.9,2.55-2.01l1.62-.1v-.4c0-.58-.38-.94-1.08-.94s-1.07.31-1.16.73v.05h-1.65v-.07c.1-1.21,1.14-2.08,2.88-2.08s2.79.88,2.79,2.2v4.5h-1.79v-.98h-.04c-.37.67-1.07,1.08-1.93,1.08-1.32,0-2.2-.83-2.2-1.98Zm2.78.68c.8,0,1.39-.51,1.39-1.2v-.47l-1.35.09c-.69.04-1.05.34-1.05.8h0c0,.5.4.78,1.02.78Z" fill="#0074ee"/><path d="m87.14,456.58h1.79v1.14h.04c.2-.81.73-1.28,1.49-1.28.2,0,.38.03.51.07v1.57c-.15-.06-.39-.1-.65-.1-.88,0-1.39.53-1.39,1.48v3.67h-1.79v-6.56Z" fill="#0074ee"/></g><g><path d="m45.79,477.11h-2.55v-1.52h6.96v1.52h-2.56v7.31h-1.85v-7.31Z" fill="#00223e"/><path d="m50.45,479.98h0c0-2.83,1.62-4.54,4.21-4.54,2.12,0,3.57,1.24,3.86,2.89l.02.08h-1.85l-.02-.06c-.29-.86-1-1.35-1.99-1.35-1.46,0-2.33,1.08-2.33,2.95h0c0,1.92.93,3.05,2.4,3.05,1.21,0,2.03-.72,2.08-1.81v-.13s-2.01,0-2.01,0v-1.38h3.82v1.02c0,2.4-1.46,3.86-3.92,3.86-2.64,0-4.25-1.72-4.25-4.6Z" fill="#00223e"/><path d="m59.21,475.59h2.04l2.02,6.94h.04l2.01-6.94h2.05l-2.96,8.83h-2.25l-2.96-8.83Z" fill="#00223e"/></g><path d="m125.43,460.54h-21.99c-.55,0-1-.45-1-1s.45-1,1-1h21.99c.55,0,1,.45,1,1s-.45,1-1,1Z" fill="#0074ee"/><path d="m99.4,481.05h-22c-.55,0-1-.45-1-1s.45-1,1-1h22c.55,0,1,.45,1,1s-.45,1-1,1Z" fill="#00223e"/><g><circle cx="203.04" cy="100.23" r="3.5" fill="#fff"/><path d="m203.04,97.73c1.38,0,2.5,1.12,2.5,2.5s-1.12,2.5-2.5,2.5-2.5-1.12-2.5-2.5,1.12-2.5,2.5-2.5m0-2c-2.48,0-4.5,2.02-4.5,4.5s2.02,4.5,4.5,4.5,4.5-2.02,4.5-4.5-2.02-4.5-4.5-4.5h0Z" fill="#0074ee"/></g><g><circle cx="213.13" cy="109.98" r="3.5" fill="#fff"/><path d="m213.13,107.48c1.38,0,2.5,1.12,2.5,2.5s-1.12,2.5-2.5,2.5-2.5-1.12-2.5-2.5,1.12-2.5,2.5-2.5m0-2c-2.48,0-4.5,2.02-4.5,4.5s2.02,4.5,4.5,4.5,4.5-2.02,4.5-4.5-2.02-4.5-4.5-4.5h0Z" fill="#0074ee"/></g><g><circle cx="301.86" cy="222.04" r="3.5" fill="#fff"/><path d="m301.86,219.54c1.38,0,2.5,1.12,2.5,2.5s-1.12,2.5-2.5,2.5-2.5-1.12-2.5-2.5,1.12-2.5,2.5-2.5m0-2c-2.48,0-4.5,2.02-4.5,4.5s2.02,4.5,4.5,4.5,4.5-2.02,4.5-4.5-2.02-4.5-4.5-4.5h0Z" fill="#0074ee"/></g><g><circle cx="415.86" cy="225.24" r="3.5" fill="#fff"/><path d="m415.86,222.74c1.38,0,2.5,1.12,2.5,2.5s-1.12,2.5-2.5,2.5-2.5-1.12-2.5-2.5,1.12-2.5,2.5-2.5m0-2c-2.48,0-4.5,2.02-4.5,4.5s2.02,4.5,4.5,4.5,4.5-2.02,4.5-4.5-2.02-4.5-4.5-4.5h0Z" fill="#00223e"/></g><g><circle cx="269.78" cy="137.73" r="3.5" fill="#fff"/><path d="m269.78,135.23c1.38,0,2.5,1.12,2.5,2.5s-1.12,2.5-2.5,2.5-2.5-1.12-2.5-2.5,1.12-2.5,2.5-2.5m0-2c-2.48,0-4.5,2.02-4.5,4.5s2.02,4.5,4.5,4.5,4.5-2.02,4.5-4.5-2.02-4.5-4.5-4.5h0Z" fill="#0074ee"/></g><g><circle cx="377.61" cy="447.97" r="3.5" fill="#fff"/><path d="m377.61,445.47c1.38,0,2.5,1.12,2.5,2.5s-1.12,2.5-2.5,2.5-2.5-1.12-2.5-2.5,1.12-2.5,2.5-2.5m0-2c-2.48,0-4.5,2.02-4.5,4.5s2.02,4.5,4.5,4.5,4.5-2.02,4.5-4.5-2.02-4.5-4.5-4.5h0Z" fill="#00223e"/></g><g><circle cx="249.04" cy="427.38" r="3.5" fill="#fff"/><path d="m249.04,424.88c1.38,0,2.5,1.12,2.5,2.5s-1.12,2.5-2.5,2.5-2.5-1.12-2.5-2.5,1.12-2.5,2.5-2.5m0-2c-2.48,0-4.5,2.02-4.5,4.5s2.02,4.5,4.5,4.5,4.5-2.02,4.5-4.5-2.02-4.5-4.5-4.5h0Z" fill="#00223e"/></g><g><circle cx="201.23" cy="379.43" r="3.5" fill="#fff"/><path d="m201.23,376.93c1.38,0,2.5,1.12,2.5,2.5s-1.12,2.5-2.5,2.5-2.5-1.12-2.5-2.5,1.12-2.5,2.5-2.5m0-2c-2.48,0-4.5,2.02-4.5,4.5s2.02,4.5,4.5,4.5,4.5-2.02,4.5-4.5-2.02-4.5-4.5-4.5h0Z" fill="#00223e"/></g><g><circle cx="175.39" cy="280.21" r="3.5" fill="#fff"/><path d="m175.39,277.71c1.38,0,2.5,1.12,2.5,2.5s-1.12,2.5-2.5,2.5-2.5-1.12-2.5-2.5,1.12-2.5,2.5-2.5m0-2c-2.48,0-4.5,2.02-4.5,4.5s2.02,4.5,4.5,4.5,4.5-2.02,4.5-4.5-2.02-4.5-4.5-4.5h0Z" fill="#00223e"/></g><g><circle cx="370.38" cy="109.48" r="3.5" fill="#fff"/><path d="m370.38,106.98c1.38,0,2.5,1.12,2.5,2.5s-1.12,2.5-2.5,2.5-2.5-1.12-2.5-2.5,1.12-2.5,2.5-2.5m0-2c-2.48,0-4.5,2.02-4.5,4.5s2.02,4.5,4.5,4.5,4.5-2.02,4.5-4.5-2.02-4.5-4.5-4.5h0Z" fill="#0074ee"/></g><g><circle cx="379.99" cy="92.73" r="3.5" fill="#fff"/><path d="m379.99,90.23c1.38,0,2.5,1.12,2.5,2.5s-1.12,2.5-2.5,2.5-2.5-1.12-2.5-2.5,1.12-2.5,2.5-2.5m0-2c-2.48,0-4.5,2.02-4.5,4.5s2.02,4.5,4.5,4.5,4.5-2.02,4.5-4.5-2.02-4.5-4.5-4.5h0Z" fill="#0074ee"/></g><g><circle cx="290.56" cy="151.65" r="3.5" fill="#fff"/><path d="m290.56,149.15c1.38,0,2.5,1.12,2.5,2.5s-1.12,2.5-2.5,2.5-2.5-1.12-2.5-2.5,1.12-2.5,2.5-2.5m0-2c-2.48,0-4.5,2.02-4.5,4.5s2.02,4.5,4.5,4.5,4.5-2.02,4.5-4.5-2.02-4.5-4.5-4.5h0Z" fill="#0074ee"/></g><g><circle cx="167.95" cy="413.38" r="3.5" fill="#fff"/><path d="m167.95,410.88c1.38,0,2.5,1.12,2.5,2.5s-1.12,2.5-2.5,2.5-2.5-1.12-2.5-2.5,1.12-2.5,2.5-2.5m0-2c-2.48,0-4.5,2.02-4.5,4.5s2.02,4.5,4.5,4.5,4.5-2.02,4.5-4.5-2.02-4.5-4.5-4.5h0Z" fill="#00223e"/></g><g><circle cx="218.13" cy="438.98" r="3.5" fill="#fff"/><path d="m218.13,436.48c1.38,0,2.5,1.12,2.5,2.5s-1.12,2.5-2.5,2.5-2.5-1.12-2.5-2.5,1.12-2.5,2.5-2.5m0-2c-2.48,0-4.5,2.02-4.5,4.5s2.02,4.5,4.5,4.5,4.5-2.02,4.5-4.5-2.02-4.5-4.5-4.5h0Z" fill="#00223e"/></g><g><circle cx="289.66" cy="458.92" r="3.5" fill="#fff"/><path d="m289.66,456.42c1.38,0,2.5,1.12,2.5,2.5s-1.12,2.5-2.5,2.5-2.5-1.12-2.5-2.5,1.12-2.5,2.5-2.5m0-2c-2.48,0-4.5,2.02-4.5,4.5s2.02,4.5,4.5,4.5,4.5-2.02,4.5-4.5-2.02-4.5-4.5-4.5h0Z" fill="#00223e"/></g><g><circle cx="189.97" cy="84.46" r="5" fill="#fff"/><path d="m189.97,80.46c2.21,0,4,1.79,4,4s-1.79,4-4,4-4-1.79-4-4,1.79-4,4-4m0-2c-3.31,0-6,2.69-6,6s2.69,6,6,6,6-2.69,6-6-2.69-6-6-6h0Z" fill="#0074ee"/></g><g><circle cx="354.59" cy="145.6" r="5" fill="#fff"/><path d="m354.59,141.6c2.21,0,4,1.79,4,4s-1.79,4-4,4-4-1.79-4-4,1.79-4,4-4m0-2c-3.31,0-6,2.69-6,6s2.69,6,6,6,6-2.69,6-6-2.69-6-6-6h0Z" fill="#0074ee"/></g><path d="m359.05,431.04l-15.68-15.68c-.19-.19-.29-.44-.29-.71v-17.75c0-.27.11-.52.29-.71l6.5-6.5v-55.5l-7.49-7.49c-.19-.19-.29-.44-.29-.71v-8.77l-9.27-9.27c-.19-.19-.29-.44-.29-.71v-35.2l-53.74-53.74,1.41-1.41,54.03,54.03c.19.19.29.44.29.71v35.2l9.27,9.27c.19.19.29.44.29.71v8.77l7.49,7.49c.19.19.29.44.29.71v56.33c0,.27-.11.52-.29.71l-6.5,6.5v16.92l15.39,15.39-1.41,1.41Z" fill="#0074ee"/><g><circle cx="350.99" cy="336.74" r="3.5" fill="#fff"/><path d="m350.99,334.24c1.38,0,2.5,1.12,2.5,2.5s-1.12,2.5-2.5,2.5-2.5-1.12-2.5-2.5,1.12-2.5,2.5-2.5m0-2c-2.48,0-4.5,2.02-4.5,4.5s2.02,4.5,4.5,4.5,4.5-2.02,4.5-4.5-2.02-4.5-4.5-4.5h0Z" fill="#0074ee"/></g><g><circle cx="344.03" cy="409.23" r="3.5" fill="#fff"/><path d="m344.03,406.73c1.38,0,2.5,1.12,2.5,2.5s-1.12,2.5-2.5,2.5-2.5-1.12-2.5-2.5,1.12-2.5,2.5-2.5m0-2c-2.48,0-4.5,2.02-4.5,4.5s2.02,4.5,4.5,4.5,4.5-2.02,4.5-4.5-2.02-4.5-4.5-4.5h0Z" fill="#0074ee"/></g><g><circle cx="360.18" cy="429.87" r="3.5" fill="#fff"/><path d="m360.18,427.37c1.38,0,2.5,1.12,2.5,2.5s-1.12,2.5-2.5,2.5-2.5-1.12-2.5-2.5,1.12-2.5,2.5-2.5m0-2c-2.48,0-4.5,2.02-4.5,4.5s2.02,4.5,4.5,4.5,4.5-2.02,4.5-4.5-2.02-4.5-4.5-4.5h0Z" fill="#00223e"/></g><g><circle cx="279.65" cy="217.52" r="5" fill="#fff"/><path d="m279.65,213.52c2.21,0,4,1.79,4,4s-1.79,4-4,4-4-1.79-4-4,1.79-4,4-4m0-2c-3.31,0-6,2.69-6,6s2.69,6,6,6,6-2.69,6-6-2.69-6-6-6h0Z" fill="#0074ee"/></g></svg>